<svg width="48" height="48" viewBox="0 0 48 48" fill="none" xmlns="http://www.w3.org/2000/svg">
<path d="M4.00383 24.0036C4.00617 33.8424 11.1606 42.2198 20.8779 43.7616V29.7836H15.8038V24.0036H20.8839V19.6037C20.6567 17.5188 21.3689 15.4409 22.8271 13.9336C24.2853 12.4263 26.3385 11.6458 28.4299 11.8037C29.9309 11.828 31.4281 11.9617 32.9099 12.2037V17.1217H30.3819C29.5115 17.0077 28.6365 17.2952 28.0033 17.9031C27.3701 18.511 27.0473 19.3735 27.1259 20.2476V24.0036H32.6679L31.7819 29.7856H27.1259V43.7616C37.6347 42.1008 45.0039 32.5032 43.8949 21.9218C42.7857 11.3405 33.5863 3.47958 22.9615 4.03408C12.3365 4.58858 4.00553 13.3643 4.00383 24.0036Z" fill="white"/>
</svg>
