<svg width="48" height="48" viewBox="0 0 48 48" fill="none" xmlns="http://www.w3.org/2000/svg">
<path d="M24.0038 42.0815C19.0837 42.0815 18.5037 42.0555 16.5837 41.9715C15.0865 41.9223 13.6086 41.6179 12.2137 41.0715C9.80034 40.1323 7.892 38.2233 6.95372 35.8095C6.42834 34.4095 6.14496 32.9305 6.11572 31.4355C6.00372 29.5195 6.00372 28.8915 6.00372 24.0095C6.00372 19.0755 6.02972 18.4995 6.11572 16.5895C6.1456 15.0966 6.42896 13.6195 6.95372 12.2215C7.89098 9.80458 9.80242 7.89388 12.2197 6.95752C13.617 6.42994 15.0944 6.14582 16.5877 6.11752C18.4977 6.00952 19.1257 6.00952 24.0038 6.00952C28.9638 6.00952 29.5338 6.03552 31.4238 6.11752C32.9208 6.14606 34.4022 6.43014 35.8038 6.95752C38.2204 7.89494 40.1314 9.80528 41.0698 12.2215C41.604 13.6399 41.8888 15.14 41.9118 16.6555C42.0238 18.5715 42.0238 19.1975 42.0238 24.0775C42.0238 28.9575 41.9958 29.5975 41.9118 31.4915C41.882 32.9879 41.5978 34.4683 41.0718 35.8695C40.131 38.2849 38.2198 40.1947 35.8038 41.1335C34.4042 41.6579 32.926 41.9413 31.4318 41.9715C29.5218 42.0815 28.8958 42.0815 24.0038 42.0815ZM23.9358 9.17552C19.0437 9.17552 18.5357 9.19952 16.6257 9.28552C15.4857 9.30064 14.3567 9.51102 13.2877 9.90752C11.7092 10.5115 10.4602 11.7555 9.84972 13.3315C9.45016 14.4121 9.23974 15.5535 9.22772 16.7055C9.12172 18.6435 9.12172 19.1515 9.12172 24.0095C9.12172 28.8095 9.13972 29.3915 9.22772 31.3175C9.24564 32.4579 9.45592 33.5871 9.84972 34.6575C10.4611 36.2325 11.7099 37.4755 13.2877 38.0795C14.356 38.4787 15.4854 38.6891 16.6257 38.7015C18.5617 38.8135 19.0717 38.8135 23.9358 38.8135C28.8418 38.8135 29.3498 38.7895 31.2438 38.7015C32.3846 38.6877 33.5144 38.4773 34.5838 38.0795C36.1526 37.4703 37.3936 36.2301 38.0038 34.6615C38.4026 33.5801 38.6128 32.4381 38.6258 31.2855H38.6478C38.7338 29.3735 38.7338 28.8635 38.7338 23.9775C38.7338 19.0915 38.7118 18.5775 38.6258 16.6675C38.6078 15.5284 38.3974 14.4006 38.0038 13.3315C37.395 11.7607 36.1538 10.5181 34.5838 9.90752C33.5146 9.50902 32.3846 9.29858 31.2438 9.28552C29.3098 9.17552 28.8038 9.17552 23.9358 9.17552ZM24.0038 33.2475C20.2636 33.2499 16.8906 30.9989 15.4575 27.5445C14.0243 24.0899 14.8135 20.1121 17.457 17.4665C20.1004 14.8207 24.0774 14.0281 27.5332 15.4582C30.989 16.8883 33.2428 20.2595 33.2438 23.9995C33.2382 29.1017 29.1058 33.2375 24.0038 33.2475ZM24.0038 17.9955C20.69 17.9955 18.0037 20.6819 18.0037 23.9955C18.0037 27.3093 20.69 29.9955 24.0038 29.9955C27.3174 29.9955 30.0038 27.3093 30.0038 23.9955C29.996 20.6849 27.3142 18.0032 24.0038 17.9955ZM33.6038 16.5695C32.4146 16.5651 31.4536 15.5987 31.4558 14.4095C31.458 13.2204 32.4226 12.2575 33.6118 12.2575C34.8008 12.2575 35.7654 13.2204 35.7678 14.4095C35.7682 14.9833 35.5402 15.5336 35.1342 15.9389C34.7282 16.3442 34.1774 16.5711 33.6038 16.5695Z" fill="white"/>
</svg>
