<svg width="48" height="48" viewBox="0 0 48 48" fill="none" xmlns="http://www.w3.org/2000/svg">
<path d="M24 41.9998C21.4738 39.845 19.1324 37.4828 17 34.9378C13.8 31.1158 9.99997 25.4238 9.99997 19.9997C9.99713 14.3348 13.4085 9.22652 18.6421 7.05854C23.8758 4.89054 29.9002 6.09022 33.904 10.0977C36.537 12.719 38.0118 16.2845 38 19.9997C38 25.4238 34.2 31.1158 31 34.9378C28.8676 37.4828 26.5262 39.845 24 41.9998ZM24 9.99974C18.4799 10.0064 14.0066 14.4796 14 19.9997C14 22.3318 15.054 26.3698 20.07 32.3718C21.3062 33.8478 22.618 35.2592 24 36.5998C25.382 35.2606 26.6944 33.8516 27.932 32.3778C32.946 26.3678 34 22.3298 34 19.9997C33.9934 14.4796 29.5202 10.0064 24 9.99974ZM24 25.9998C20.6862 25.9998 18 23.3134 18 19.9997C18 16.686 20.6862 13.9997 24 13.9997C27.3138 13.9997 30 16.686 30 19.9997C30 21.591 29.3678 23.1172 28.2426 24.2424C27.1174 25.3676 25.5914 25.9998 24 25.9998Z" fill="white"/>
</svg>
