<svg width="48" height="48" viewBox="0 0 48 48" fill="none" xmlns="http://www.w3.org/2000/svg">
<path d="M35.0001 44.0001C32.8359 44.0251 30.7849 43.0363 29.4565 41.3275C28.1283 39.6189 27.6759 37.3871 28.2341 35.2961L15.7141 28.1401C13.5506 30.1221 10.3794 30.5417 7.77503 29.1903C5.17063 27.8389 3.68781 25.0045 4.06279 22.0945C4.43777 19.1844 6.59071 16.8185 9.45261 16.1715C12.3145 15.5245 15.2758 16.7343 16.8661 19.2L28.2321 12.702C28.0851 12.1464 28.0071 11.5748 28.0001 11C27.9715 7.65347 30.2957 4.74633 33.5665 4.03769C36.8373 3.32905 40.1563 5.01353 41.5153 8.07189C42.8743 11.1302 41.9001 14.7225 39.1821 16.6751C36.4639 18.6276 32.7487 18.4042 30.2841 16.14L17.9821 23.1701C17.9699 23.6887 17.8974 24.2041 17.7661 24.7061L30.2841 31.8601C32.5887 29.7451 36.0177 29.4187 38.6799 31.0607C41.3421 32.7027 42.5893 35.9135 41.7337 38.9221C40.8781 41.9307 38.1279 44.0047 35.0001 44.0001ZM35.0001 34.0001C33.3433 34.0001 32.0001 35.3433 32.0001 37.0001C32.0001 38.6569 33.3433 40.0001 35.0001 40.0001C36.6569 40.0001 38.0001 38.6569 38.0001 37.0001C38.0001 35.3433 36.6569 34.0001 35.0001 34.0001ZM11.0001 20C9.34319 20 8.00005 21.3433 8.00005 23.0001C8.00005 24.6569 9.34319 26.0001 11.0001 26.0001C12.6569 26.0001 14.0001 24.6569 14.0001 23.0001C14.0001 21.3433 12.6569 20 11.0001 20ZM35.0001 8.00005C33.3433 8.00005 32.0001 9.34319 32.0001 11C32.0001 12.6569 33.3433 14 35.0001 14C36.6569 14 38.0001 12.6569 38.0001 11C38.0001 9.34319 36.6569 8.00005 35.0001 8.00005Z" fill="white"/>
</svg>
