<svg width="48" height="48" viewBox="0 0 48 48" fill="none" xmlns="http://www.w3.org/2000/svg">
<path d="M39.9899 13.3756C41.7827 12.3038 43.1243 10.6161 43.7639 8.62762C42.0793 9.62722 40.2359 10.3314 38.3139 10.7096C35.6491 7.89068 31.4269 7.20466 28.0067 9.03492C24.5865 10.8652 22.8149 14.7586 23.6819 18.5396C16.7812 18.1932 10.3519 14.9334 5.99399 9.57162C3.71967 13.4945 4.88189 18.5092 8.64998 21.0316C7.2874 20.9878 5.95503 20.6188 4.76399 19.9556C4.76399 19.9916 4.76399 20.0276 4.76399 20.0636C4.76477 24.1498 7.64472 27.6698 11.65 28.4796C10.3861 28.8234 9.06039 28.874 7.77399 28.6276C8.90039 32.1222 12.1211 34.5162 15.792 34.5876C12.7516 36.9738 8.99692 38.268 5.13199 38.2616C4.44693 38.2626 3.76241 38.2232 3.08199 38.1436C7.00676 40.6656 11.5747 42.0042 16.24 41.9996C22.7305 42.0442 28.9679 39.4854 33.5573 34.8956C38.1467 30.3058 40.7051 24.068 40.6599 17.5776C40.6599 17.2056 40.6513 16.8356 40.6339 16.4676C42.3149 15.2528 43.7655 13.7479 44.9179 12.0236C43.3519 12.7177 41.6909 13.1735 39.9899 13.3756Z" fill="white"/>
</svg>
