<svg width="48" height="48" viewBox="0 0 48 48" fill="none" xmlns="http://www.w3.org/2000/svg">
<path d="M20 26H6C5.46957 26 4.96086 26.2107 4.58579 26.5858C4.21071 26.9609 4 27.4696 4 28V42C4 42.5304 4.21071 43.0391 4.58579 43.4142C4.96086 43.7893 5.46957 44 6 44H20C20.5304 44 21.0391 43.7893 21.4142 43.4142C21.7893 43.0391 22 42.5304 22 42V28C22 27.4696 21.7893 26.9609 21.4142 26.5858C21.0391 26.2107 20.5304 26 20 26ZM18 40H8V30H18V40ZM42 4H28C27.4696 4 26.9609 4.21071 26.5858 4.58579C26.2107 4.96086 26 5.46957 26 6V20C26 20.5304 26.2107 21.0391 26.5858 21.4142C26.9609 21.7893 27.4696 22 28 22H42C42.5304 22 43.0391 21.7893 43.4142 21.4142C43.7893 21.0391 44 20.5304 44 20V6C44 5.46957 43.7893 4.96086 43.4142 4.58579C43.0391 4.21071 42.5304 4 42 4V4ZM40 18H30V8H40V18ZM42 26H28C27.4696 26 26.9609 26.2107 26.5858 26.5858C26.2107 26.9609 26 27.4696 26 28V42C26 42.5304 26.2107 43.0391 26.5858 43.4142C26.9609 43.7893 27.4696 44 28 44H42C42.5304 44 43.0391 43.7893 43.4142 43.4142C43.7893 43.0391 44 42.5304 44 42V28C44 27.4696 43.7893 26.9609 43.4142 26.5858C43.0391 26.2107 42.5304 26 42 26ZM40 40H30V30H40V40ZM20 4H6C5.46957 4 4.96086 4.21071 4.58579 4.58579C4.21071 4.96086 4 5.46957 4 6V20C4 20.5304 4.21071 21.0391 4.58579 21.4142C4.96086 21.7893 5.46957 22 6 22H20C20.5304 22 21.0391 21.7893 21.4142 21.4142C21.7893 21.0391 22 20.5304 22 20V6C22 5.46957 21.7893 4.96086 21.4142 4.58579C21.0391 4.21071 20.5304 4 20 4V4ZM18 18H8V8H18V18Z" fill="#45595E"/>
</svg>
