<svg width="48" height="48" viewBox="0 0 48 48" fill="none" xmlns="http://www.w3.org/2000/svg">
<path d="M14 16H42C43.2 16 44 15.2 44 14C44 12.8 43.2 12 42 12H14C12.8 12 12 12.8 12 14C12 15.2 12.8 16 14 16ZM42 22H14C12.8 22 12 22.8 12 24C12 25.2 12.8 26 14 26H42C43.2 26 44 25.2 44 24C44 22.8 43.2 22 42 22ZM42 32H14C12.8 32 12 32.8 12 34C12 35.2 12.8 36 14 36H42C43.2 36 44 35.2 44 34C44 32.8 43.2 32 42 32ZM7.40005 12.6C7.20005 12.4 7.00005 12.2 6.80005 12.2C6.00005 11.8 5.20005 12 4.60005 12.6C4.40005 12.8 4.20005 13 4.20005 13.2C4.00005 13.8 4.00005 14.2 4.20005 14.8C4.40005 15 4.40005 15.2 4.60005 15.4C4.80005 15.6 5.00005 15.8 5.20005 15.8C5.40005 16 5.80005 16 6.00005 16C6.60005 16 7.00005 15.8 7.40005 15.4C7.60005 15.2 7.80005 15 7.80005 14.8C8.00005 14.2 8.00005 13.8 7.80005 13.2C7.80005 13 7.60005 12.8 7.40005 12.6ZM7.40005 22.6C6.80005 22 6.00005 21.8 5.20005 22.2C5.00005 22.4 4.80005 22.4 4.60005 22.6C4.40005 22.8 4.20005 23 4.20005 23.2C4.00005 23.6 4.00005 24.2 4.20005 24.8C4.40005 25 4.40005 25.2 4.60005 25.4C4.80005 25.6 5.00005 25.8 5.20005 25.8C5.40005 26 5.80005 26 6.00005 26C6.20005 26 6.60005 26 6.80005 25.8C7.00005 25.6 7.20005 25.6 7.40005 25.4C7.60005 25.2 7.80005 25 7.80005 24.8C8.00005 24.4 8.00005 23.8 7.80005 23.2C7.80005 23 7.60005 22.8 7.40005 22.6ZM7.40005 32.6C7.20005 32.4 7.00005 32.2 6.80005 32.2C6.40005 32 5.80005 32 5.20005 32.2C5.00005 32.2 4.80005 32.4 4.60005 32.6C4.40005 32.8 4.20005 33 4.20005 33.2C3.80005 34 4.00005 34.8 4.60005 35.4C4.80005 35.6 5.00005 35.8 5.20005 35.8C5.40005 36 5.80005 36 6.00005 36C6.20005 36 6.60005 36 6.80005 35.8C7.00005 35.6 7.20005 35.6 7.40005 35.4C8.00005 34.8 8.20005 34 7.80005 33.2C7.80005 33 7.60005 32.8 7.40005 32.6Z" fill="#45595E"/>
</svg>
