<svg width="48" height="48" viewBox="0 0 48 48" fill="none" xmlns="http://www.w3.org/2000/svg">
<path d="M6 16H42C43.2 16 44 15.2 44 14C44 12.8 43.2 12 42 12H6C4.8 12 4 12.8 4 14C4 15.2 4.8 16 6 16ZM6 16H42C43.2 16 44 15.2 44 14C44 12.8 43.2 12 42 12H6C4.8 12 4 12.8 4 14C4 15.2 4.8 16 6 16Z" fill="white"/>
<path d="M6 26H42C43.2 26 44 25.2 44 24C44 22.8 43.2 22 42 22H6C4.8 22 4 22.8 4 24C4 25.2 4.8 26 6 26ZM6 26H42C43.2 26 44 25.2 44 24C44 22.8 43.2 22 42 22H6C4.8 22 4 22.8 4 24C4 25.2 4.8 26 6 26Z" fill="white"/>
<path d="M6 32H42C43.2 32 44 32.8 44 34C44 35.2 43.2 36 42 36H6C4.8 36 4 35.2 4 34C4 32.8 4.8 32 6 32Z" fill="white"/>
</svg>
