<svg width="162" height="180" viewBox="0 0 162 180" fill="none" xmlns="http://www.w3.org/2000/svg">
<circle cx="82" cy="100" r="75" fill="#A3B6B8"/>
<circle cx="82" cy="100" r="77.5" stroke="#4F4046" stroke-width="5"/>
<path fill-rule="evenodd" clip-rule="evenodd" d="M124.197 164.31C114.835 170.194 103.982 173.922 92.3333 174.8V168.617C92.3333 167.293 91.8081 166.023 90.8729 165.085L85.7691 159.97C84.8339 159.033 84.3086 157.763 84.3086 156.438V146.344C84.3086 145.02 83.7834 143.75 82.8482 142.813L75.8925 135.841C74.9573 134.904 74.4321 133.634 74.4321 132.31V124.471C74.4321 122.421 71.9524 121.395 70.5045 122.847C69.606 123.747 68.1471 123.747 67.2486 122.847L64.528 120.12C63.4003 118.99 61.4691 119.788 61.4691 121.385V123.244C61.4691 124.155 62.5712 124.611 63.2147 123.966C63.6141 123.566 64.2625 123.566 64.6618 123.966L69.0567 128.371C71.004 130.323 71.004 133.482 69.0567 135.434L68.431 136.061C67.5307 136.964 66.3083 137.471 65.0336 137.471H62.4C61.2041 137.471 60.2346 136.501 60.2346 135.305C60.2346 134.109 59.2651 133.14 58.0692 133.14H53.667C52.3389 133.14 51.0654 132.612 50.1274 131.671L45.6456 127.179C44.7104 126.242 44.1852 124.972 44.1852 123.648V110.46C44.1852 109.136 43.66 107.866 42.7247 106.929L41.3246 105.525C40.3894 104.588 39.8642 103.318 39.8642 101.994V91.2809C39.8642 89.9567 39.339 88.6867 38.4037 87.7493L17.2506 66.5481C16.3153 65.6107 15.7901 64.3407 15.7901 63.0165V49.2101C15.7901 47.886 15.2649 46.6159 14.3297 45.6786L10.4605 41.8005C9.52523 40.8632 9 39.5931 9 38.269V36.8363C9 35.5122 9.52523 34.2421 10.4605 33.3048L13.0951 30.6641C14.0303 29.7268 14.5556 28.4567 14.5556 27.1326V17.0383C14.5556 15.7142 15.0808 14.4441 16.016 13.5068L17.4114 12.1082C18.3494 11.1681 19.6229 10.6397 20.9509 10.6397H26.6787C28.0067 10.6397 29.2802 10.1114 30.2182 9.17124L35.9299 3.44657C36.8679 2.50643 38.1414 1.97809 39.4695 1.97809H42.1108C43.4388 1.97809 44.7123 2.50643 45.6503 3.44657L51.5162 9.3258C52.3557 10.1672 52.8272 11.3072 52.8272 12.4958V12.6039C52.8272 13.7232 52.3832 14.7969 51.5926 15.5892C50.802 16.3816 50.358 17.4552 50.358 18.5745V19.0897C50.358 20.4138 49.8328 21.6838 48.8976 22.6212L47.1295 24.3933C46.4299 25.0945 46.037 26.0445 46.037 27.035C46.037 28.0254 46.4299 28.9755 47.1295 29.6766L53.2186 35.7795C54.1538 36.7169 54.679 37.9869 54.679 39.3111V39.5064C54.679 40.8305 55.2042 42.1006 56.1395 43.0379L60.004 46.9112C60.942 47.8514 62.2155 48.3797 63.5435 48.3797H67.9485C68.461 48.3797 68.8765 47.9642 68.8765 47.4517C68.8765 46.9391 69.292 46.5236 69.8046 46.5236H71.4942C72.1895 46.5236 72.8562 46.8002 73.3473 47.2924L76.6753 50.6281C77.6106 51.5654 78.1358 52.8355 78.1358 54.1596V61.1605C78.1358 62.4846 78.661 63.7546 79.5963 64.692L80.9963 66.0953C81.9316 67.0326 82.4568 68.3027 82.4568 69.6268V80.9585C82.4568 82.2826 82.982 83.5527 83.9172 84.49L84.6953 85.2699C85.6333 86.21 86.9068 86.7384 88.2349 86.7384H89.0244C90.3524 86.7384 91.6259 86.21 92.5639 85.2699L93.342 84.49C94.2772 83.5527 94.8025 82.2826 94.8025 80.9585V69.307C94.8025 68.1876 94.3585 67.114 93.5679 66.3217C92.7773 65.5293 92.3333 64.4557 92.3333 63.3363V63.1201C92.3333 62.0008 92.7773 60.9272 93.5679 60.1348L93.71 59.9923C94.4096 59.2912 94.8025 58.3411 94.8025 57.3507V57.1149C94.8025 56.2754 94.4695 55.4702 93.8765 54.8759C93.2836 54.2816 92.9506 53.4764 92.9506 52.6369V48.2911C92.9506 47.5555 93.2424 46.8499 93.762 46.3291L94.4014 45.6883C95.9146 44.1715 98.5062 45.2433 98.5062 47.3858C98.5062 48.0223 98.7586 48.6327 99.2082 49.0833L106.998 56.8912C107.49 57.3835 107.765 58.0506 107.765 58.746V59.627C107.765 60.5908 108.547 61.3722 109.511 61.3722C109.974 61.3722 110.419 61.1877 110.746 60.8596L114.325 57.2724C115.263 56.3323 116.536 55.804 117.865 55.804H118.654C119.982 55.804 121.256 55.2756 122.194 54.3355L123.342 53.1843C124.04 52.4849 124.987 52.0918 125.975 52.0918H126.205C127.046 52.0918 127.852 51.7574 128.446 51.1623L128.731 50.8764C129.14 50.4662 129.37 49.9103 129.37 49.3307C129.37 48.1221 130.35 47.1423 131.559 47.1423H133.074C135.12 47.1423 136.778 48.8005 136.778 50.846V51.9569C136.778 53.2318 136.272 54.4548 135.371 55.3574L128.984 61.7597C128.046 62.6999 126.772 63.2282 125.444 63.2282H122.378C120.444 63.2282 118.877 64.7959 118.877 66.7297V67.4094C118.877 67.9014 119.072 68.3733 119.419 68.7216C120.143 69.4468 120.143 70.6208 119.419 71.346L113.547 77.2316C112.612 78.169 112.086 79.439 112.086 80.7632V80.9585C112.086 82.2826 112.612 83.5527 113.547 84.49L121.737 92.6989C122.672 93.6362 123.198 94.9062 123.198 96.2304V96.4257C123.198 97.7498 123.723 99.0199 124.658 99.9572L130.379 105.691C131.314 106.629 131.84 107.899 131.84 109.223V110.656C131.84 111.98 132.365 113.25 133.3 114.187L137.786 118.684C138.722 119.621 139.247 120.891 139.247 122.215V122.572C139.247 125.333 141.485 127.572 144.247 127.572H151.37C151.99 127.572 152.599 127.687 153.166 127.906C151.391 133.036 149.035 137.896 146.177 142.407C146.057 142.416 145.936 142.42 145.814 142.42H144.408C143.08 142.42 141.806 142.949 140.868 143.889L138.243 146.52C137.305 147.46 136.031 147.988 134.703 147.988H132.991C132.254 147.988 131.547 147.695 131.026 147.173L128.25 144.391C127.525 143.665 126.284 144.178 126.284 145.204C126.284 146.231 125.042 146.744 124.318 146.018L123.648 145.347C123.36 145.058 123.198 144.666 123.198 144.257V137.514C123.198 136.694 123.523 135.907 124.102 135.327C125.308 134.118 125.308 132.162 124.102 130.953L122.189 129.036C121.254 128.098 120.728 126.828 120.728 125.504V122.215C120.728 120.891 120.203 119.621 119.268 118.684L116.102 115.511C115.249 114.655 113.862 114.655 113.009 115.511C112.158 116.364 112.158 117.744 113.009 118.597L113.651 119.241C114.23 119.822 114.556 120.608 114.556 121.428V132.31C114.556 133.634 115.081 134.904 116.016 135.841L116.182 136.007C117.117 136.944 117.642 138.214 117.642 139.539V140.353C117.642 141.677 118.167 142.947 119.102 143.884L126.058 150.856C126.993 151.793 127.519 153.063 127.519 154.387V158.913C127.519 160.237 126.993 161.507 126.058 162.445L124.197 164.31Z" fill="#BDD3D6"/>
<path d="M124.197 164.31L124.995 165.58L125.139 165.49L125.259 165.369L124.197 164.31ZM92.3333 174.8H90.8333V176.417L92.446 176.296L92.3333 174.8ZM90.8729 165.085L89.811 166.145L89.811 166.145L90.8729 165.085ZM85.7691 159.97L84.7072 161.029L84.7072 161.029L85.7691 159.97ZM82.8482 142.813L81.7863 143.872L81.7863 143.872L82.8482 142.813ZM75.8925 135.841L76.9544 134.782L76.9544 134.782L75.8925 135.841ZM70.5045 122.847L69.4426 121.787L69.4426 121.787L70.5045 122.847ZM67.2486 122.847L66.1867 123.906L66.1867 123.906L67.2486 122.847ZM64.528 120.12L65.5899 119.06L65.5899 119.06L64.528 120.12ZM63.2147 123.966L62.1529 122.907L62.1529 122.907L63.2147 123.966ZM64.6618 123.966L65.7237 122.907L65.7237 122.907L64.6618 123.966ZM69.0567 128.371L70.1186 127.312L70.1186 127.312L69.0567 128.371ZM69.0567 135.434L70.1186 136.494L70.1186 136.494L69.0567 135.434ZM68.431 136.061L69.4928 137.121L69.4928 137.121L68.431 136.061ZM50.1274 131.671L51.1893 130.612L51.1893 130.612L50.1274 131.671ZM45.6456 127.179L44.5838 128.239L44.5838 128.239L45.6456 127.179ZM42.7247 106.929L41.6629 107.988L41.6629 107.988L42.7247 106.929ZM41.3246 105.525L42.3865 104.466L42.3865 104.466L41.3246 105.525ZM38.4037 87.7493L39.4656 86.6899L39.4656 86.6899L38.4037 87.7493ZM17.2506 66.5481L16.1887 67.6075L16.1887 67.6075L17.2506 66.5481ZM14.3297 45.6786L15.3915 44.6191L15.3915 44.6191L14.3297 45.6786ZM10.4605 41.8005L9.39859 42.86L9.39859 42.86L10.4605 41.8005ZM10.4605 33.3048L11.5223 34.3642L11.5223 34.3642L10.4605 33.3048ZM13.0951 30.6641L12.0332 29.6047L12.0332 29.6047L13.0951 30.6641ZM16.016 13.5068L14.9541 12.4473L14.9541 12.4473L16.016 13.5068ZM17.4114 12.1082L16.3495 11.0488L16.3495 11.0488L17.4114 12.1082ZM30.2182 9.17124L29.1564 8.11178L29.1564 8.11178L30.2182 9.17124ZM35.9299 3.44657L34.868 2.38712L34.868 2.38712L35.9299 3.44657ZM45.6503 3.44657L46.7122 2.38712L46.7122 2.38712L45.6503 3.44657ZM51.5162 9.3258L52.5781 8.26634L52.5781 8.26634L51.5162 9.3258ZM48.8976 22.6212L47.8357 21.5617L47.8357 21.5617L48.8976 22.6212ZM47.1295 24.3933L48.1914 25.4528L48.1914 25.4528L47.1295 24.3933ZM47.1295 29.6766L48.1914 28.6172L48.1914 28.6172L47.1295 29.6766ZM53.2186 35.7795L52.1567 36.839L52.1567 36.839L53.2186 35.7795ZM56.1395 43.0379L55.0776 44.0974L55.0776 44.0974L56.1395 43.0379ZM60.004 46.9112L58.9421 47.9707L58.9421 47.9707L60.004 46.9112ZM73.3473 47.2924L72.2854 48.3519L72.2854 48.3519L73.3473 47.2924ZM76.6753 50.6281L77.7372 49.5686L77.7372 49.5686L76.6753 50.6281ZM79.5963 64.692L80.6581 63.6325L80.6581 63.6325L79.5963 64.692ZM80.9963 66.0953L82.0582 65.0358L82.0582 65.0358L80.9963 66.0953ZM83.9172 84.49L82.8554 85.5495L82.8554 85.5495L83.9172 84.49ZM84.6953 85.2699L85.7572 84.2104L85.7572 84.2104L84.6953 85.2699ZM92.5639 85.2699L93.6258 86.3293L93.6258 86.3293L92.5639 85.2699ZM93.342 84.49L94.4039 85.5495L94.4039 85.5495L93.342 84.49ZM93.5679 66.3217L94.6298 65.2622L94.6298 65.2622L93.5679 66.3217ZM93.5679 60.1348L94.6298 61.1942L94.6298 61.1942L93.5679 60.1348ZM93.71 59.9923L92.6482 58.9329L92.6481 58.9329L93.71 59.9923ZM93.762 46.3291L94.8238 47.3886L94.8238 47.3886L93.762 46.3291ZM94.4014 45.6883L93.3395 44.6288L93.3395 44.6288L94.4014 45.6883ZM99.2082 49.0833L100.27 48.0239L100.27 48.0238L99.2082 49.0833ZM106.998 56.8912L105.937 57.9507L105.937 57.9507L106.998 56.8912ZM110.746 60.8596L109.684 59.8002L109.684 59.8002L110.746 60.8596ZM114.325 57.2724L113.263 56.213L113.263 56.213L114.325 57.2724ZM122.194 54.3355L121.132 53.276L121.132 53.276L122.194 54.3355ZM123.342 53.1843L124.404 54.2437L124.404 54.2437L123.342 53.1843ZM128.446 51.1623L129.508 52.2218L129.508 52.2218L128.446 51.1623ZM128.731 50.8764L129.793 51.9359L129.793 51.9359L128.731 50.8764ZM135.371 55.3574L136.433 56.4168L136.433 56.4168L135.371 55.3574ZM128.984 61.7597L127.922 60.7003L127.922 60.7003L128.984 61.7597ZM119.419 68.7216L120.481 67.6622L120.481 67.6621L119.419 68.7216ZM119.419 71.346L120.481 72.4054L120.481 72.4054L119.419 71.346ZM113.547 77.2316L112.485 76.1722L112.485 76.1722L113.547 77.2316ZM113.547 84.49L112.485 85.5495L112.485 85.5495L113.547 84.49ZM121.737 92.6989L122.799 91.6394L122.799 91.6394L121.737 92.6989ZM124.658 99.9572L125.72 98.8978L125.72 98.8978L124.658 99.9572ZM130.379 105.691L131.441 104.632L131.441 104.632L130.379 105.691ZM133.3 114.187L134.362 113.128L134.362 113.128L133.3 114.187ZM137.786 118.684L136.725 119.743L136.725 119.743L137.786 118.684ZM153.166 127.906L154.584 128.396L155.058 127.027L153.705 126.506L153.166 127.906ZM146.177 142.407L146.286 143.903L147.04 143.848L147.445 143.21L146.177 142.407ZM140.868 143.889L141.93 144.948L141.93 144.948L140.868 143.889ZM138.243 146.52L139.305 147.579L139.305 147.579L138.243 146.52ZM131.026 147.173L132.088 146.114L132.088 146.114L131.026 147.173ZM128.25 144.391L129.312 143.332L129.312 143.332L128.25 144.391ZM124.318 146.018L123.256 147.077L123.256 147.077L124.318 146.018ZM123.648 145.347L124.71 144.287L124.71 144.287L123.648 145.347ZM124.102 135.327L123.04 134.267L123.04 134.267L124.102 135.327ZM124.102 130.953L125.164 129.894L125.164 129.894L124.102 130.953ZM122.189 129.036L121.127 130.095L121.127 130.095L122.189 129.036ZM119.268 118.684L120.33 117.624L120.33 117.624L119.268 118.684ZM116.102 115.511L117.164 114.451L117.164 114.451L116.102 115.511ZM113.009 115.511L111.947 114.451L111.947 114.451L113.009 115.511ZM113.009 118.597L114.071 117.538L114.071 117.538L113.009 118.597ZM113.651 119.241L114.713 118.182L114.713 118.182L113.651 119.241ZM116.016 135.841L117.078 134.782L117.078 134.782L116.016 135.841ZM116.182 136.007L115.12 137.066L115.12 137.066L116.182 136.007ZM119.102 143.884L118.041 144.944L118.041 144.944L119.102 143.884ZM126.058 150.856L124.996 151.915L124.996 151.915L126.058 150.856ZM126.058 162.445L124.996 161.385L124.996 161.385L126.058 162.445ZM123.399 163.04C114.238 168.797 103.619 172.445 92.2206 173.304L92.446 176.296C104.345 175.399 115.432 171.59 124.995 165.58L123.399 163.04ZM93.8333 174.8V168.617H90.8333V174.8H93.8333ZM93.8333 168.617C93.8333 166.896 93.1505 165.244 91.9347 164.026L89.811 166.145C90.4657 166.801 90.8333 167.69 90.8333 168.617H93.8333ZM91.9347 164.026L86.831 158.911L84.7072 161.029L89.811 166.145L91.9347 164.026ZM86.831 158.911C86.1763 158.254 85.8086 157.365 85.8086 156.438H82.8086C82.8086 158.16 83.4914 159.811 84.7072 161.029L86.831 158.911ZM85.8086 156.438V146.344H82.8086V156.438H85.8086ZM85.8086 146.344C85.8086 144.623 85.1259 142.972 83.9101 141.753L81.7863 143.872C82.441 144.528 82.8086 145.417 82.8086 146.344H85.8086ZM83.9101 141.753L76.9544 134.782L74.8307 136.901L81.7863 143.872L83.9101 141.753ZM76.9544 134.782C76.2998 134.126 75.9321 133.236 75.9321 132.31H72.9321C72.9321 134.031 73.6149 135.682 74.8307 136.901L76.9544 134.782ZM75.9321 132.31V124.471H72.9321V132.31H75.9321ZM75.9321 124.471C75.9321 121.084 71.835 119.389 69.4426 121.787L71.5664 123.906C72.0699 123.402 72.9321 123.758 72.9321 124.471H75.9321ZM69.4426 121.787C69.1302 122.1 68.6229 122.1 68.3105 121.787L66.1867 123.906C67.6713 125.394 70.0818 125.394 71.5664 123.906L69.4426 121.787ZM68.3105 121.787L65.5899 119.06L63.4661 121.179L66.1867 123.906L68.3105 121.787ZM65.5899 119.06C63.5177 116.984 59.9691 118.451 59.9691 121.385H62.9691C62.9691 121.299 62.992 121.251 63.0144 121.219C63.0416 121.181 63.0869 121.142 63.1489 121.116C63.2109 121.09 63.2706 121.086 63.3171 121.094C63.3553 121.101 63.4054 121.118 63.4661 121.179L65.5899 119.06ZM59.9691 121.385V123.244H62.9691V121.385H59.9691ZM59.9691 123.244C59.9691 125.493 62.6886 126.617 64.2766 125.026L62.1529 122.907C62.4538 122.605 62.9691 122.818 62.9691 123.244H59.9691ZM64.2766 125.026C64.0899 125.213 63.7867 125.213 63.5999 125.026L65.7237 122.907C64.7383 121.919 63.1383 121.919 62.1529 122.907L64.2766 125.026ZM63.5999 125.026L67.9949 129.431L70.1186 127.312L65.7237 122.907L63.5999 125.026ZM67.9949 129.431C69.358 130.797 69.358 133.008 67.9949 134.375L70.1186 136.494C72.6501 133.956 72.6501 129.849 70.1186 127.312L67.9949 129.431ZM67.9949 134.375L67.3691 135.002L69.4928 137.121L70.1186 136.494L67.9949 134.375ZM67.3691 135.002C66.7502 135.622 65.9099 135.971 65.0336 135.971V138.971C66.7068 138.971 68.3111 138.305 69.4928 137.121L67.3691 135.002ZM65.0336 135.971H62.4V138.971H65.0336V135.971ZM62.4 135.971C62.0325 135.971 61.7346 135.673 61.7346 135.305H58.7346C58.7346 137.33 60.3756 138.971 62.4 138.971V135.971ZM61.7346 135.305C61.7346 133.281 60.0935 131.64 58.0692 131.64V134.64C58.4367 134.64 58.7346 134.938 58.7346 135.305H61.7346ZM58.0692 131.64H53.667V134.64H58.0692V131.64ZM53.667 131.64C52.7374 131.64 51.8459 131.27 51.1893 130.612L49.0656 132.731C50.285 133.953 51.9405 134.64 53.667 134.64V131.64ZM51.1893 130.612L46.7075 126.12L44.5838 128.239L49.0656 132.731L51.1893 130.612ZM46.7075 126.12C46.0528 125.464 45.6852 124.575 45.6852 123.648H42.6852C42.6852 125.369 43.368 127.02 44.5838 128.239L46.7075 126.12ZM45.6852 123.648V110.46H42.6852V123.648H45.6852ZM45.6852 110.46C45.6852 108.739 45.0024 107.088 43.7866 105.869L41.6629 107.988C42.3175 108.644 42.6852 109.533 42.6852 110.46H45.6852ZM43.7866 105.869L42.3865 104.466L40.2628 106.585L41.6629 107.988L43.7866 105.869ZM42.3865 104.466C41.7319 103.81 41.3642 102.921 41.3642 101.994H38.3642C38.3642 103.715 39.047 105.366 40.2628 106.585L42.3865 104.466ZM41.3642 101.994V91.2809H38.3642V101.994H41.3642ZM41.3642 91.2809C41.3642 89.5595 40.6814 87.9085 39.4656 86.6899L37.3419 88.8088C37.9965 89.4649 38.3642 90.354 38.3642 91.2809H41.3642ZM39.4656 86.6899L18.3124 65.4886L16.1887 67.6075L37.3419 88.8088L39.4656 86.6899ZM18.3124 65.4886C17.6578 64.8325 17.2901 63.9434 17.2901 63.0165H14.2901C14.2901 64.7379 14.9729 66.389 16.1887 67.6075L18.3124 65.4886ZM17.2901 63.0165V49.2101H14.2901V63.0165H17.2901ZM17.2901 49.2101C17.2901 47.4887 16.6073 45.8377 15.3915 44.6191L13.2678 46.738C13.9225 47.3942 14.2901 48.2832 14.2901 49.2101H17.2901ZM15.3915 44.6191L11.5223 40.7411L9.39859 42.86L13.2678 46.738L15.3915 44.6191ZM11.5223 40.7411C10.8677 40.0849 10.5 39.1959 10.5 38.269H7.5C7.5 39.9904 8.18279 41.6414 9.39859 42.86L11.5223 40.7411ZM10.5 38.269V36.8363H7.5V38.269H10.5ZM10.5 36.8363C10.5 35.9094 10.8677 35.0204 11.5223 34.3642L9.39859 32.2453C8.18279 33.4639 7.5 35.115 7.5 36.8363H10.5ZM11.5223 34.3642L14.157 31.7236L12.0332 29.6047L9.39859 32.2453L11.5223 34.3642ZM14.157 31.7236C15.3728 30.505 16.0556 28.854 16.0556 27.1326H13.0556C13.0556 28.0595 12.6879 28.9485 12.0332 29.6047L14.157 31.7236ZM16.0556 27.1326V17.0383H13.0556V27.1326H16.0556ZM16.0556 17.0383C16.0556 16.1114 16.4232 15.2224 17.0779 14.5662L14.9541 12.4473C13.7383 13.6659 13.0556 15.3169 13.0556 17.0383H16.0556ZM17.0779 14.5662L18.4733 13.1677L16.3495 11.0488L14.9541 12.4473L17.0779 14.5662ZM18.4733 13.1677C19.1299 12.5096 20.0213 12.1397 20.9509 12.1397V9.13972C19.2245 9.13972 17.5689 9.82657 16.3495 11.0488L18.4733 13.1677ZM20.9509 12.1397H26.6787V9.13972H20.9509V12.1397ZM26.6787 12.1397C28.4052 12.1397 30.0607 11.4529 31.2801 10.2307L29.1564 8.11178C28.4998 8.76988 27.6083 9.13972 26.6787 9.13972V12.1397ZM31.2801 10.2307L36.9918 4.50603L34.868 2.38712L29.1564 8.11178L31.2801 10.2307ZM36.9918 4.50603C37.6484 3.84793 38.5398 3.47809 39.4695 3.47809V0.478088C37.743 0.478088 36.0875 1.16494 34.868 2.38712L36.9918 4.50603ZM39.4695 3.47809H42.1108V0.478088H39.4695V3.47809ZM42.1108 3.47809C43.0404 3.47809 43.9319 3.84793 44.5885 4.50603L46.7122 2.38712C45.4928 1.16494 43.8373 0.478088 42.1108 0.478088V3.47809ZM44.5885 4.50603L50.4544 10.3853L52.5781 8.26634L46.7122 2.38712L44.5885 4.50603ZM50.4544 10.3853C51.0133 10.9454 51.3272 11.7045 51.3272 12.4958H54.3272C54.3272 10.91 53.6981 9.38894 52.5781 8.26634L50.4544 10.3853ZM51.3272 12.4958V12.6039H54.3272V12.4958H51.3272ZM51.3272 12.6039C51.3272 13.326 51.0407 14.0186 50.5307 14.5298L52.6545 16.6487C53.7256 15.5751 54.3272 14.1205 54.3272 12.6039H51.3272ZM50.5307 14.5298C49.4596 15.6034 48.858 17.058 48.858 18.5745H51.858C51.858 17.8524 52.1444 17.1599 52.6545 16.6487L50.5307 14.5298ZM48.858 18.5745V19.0897H51.858V18.5745H48.858ZM48.858 19.0897C48.858 20.0166 48.4904 20.9056 47.8357 21.5617L49.9594 23.6806C51.1752 22.4621 51.858 20.811 51.858 19.0897H48.858ZM47.8357 21.5617L46.0676 23.3338L48.1914 25.4528L49.9594 23.6806L47.8357 21.5617ZM46.0676 23.3338C45.0875 24.3162 44.537 25.6473 44.537 27.035H47.537C47.537 26.4417 47.7724 25.8727 48.1914 25.4528L46.0676 23.3338ZM44.537 27.035C44.537 28.4227 45.0875 29.7537 46.0676 30.7361L48.1914 28.6172C47.7723 28.1972 47.537 27.6282 47.537 27.035H44.537ZM46.0676 30.7361L52.1567 36.839L54.2804 34.7201L48.1914 28.6172L46.0676 30.7361ZM52.1567 36.839C52.8114 37.4951 53.179 38.3842 53.179 39.3111H56.179C56.179 37.5897 55.4962 35.9386 54.2804 34.7201L52.1567 36.839ZM53.179 39.3111V39.5064H56.179V39.3111H53.179ZM53.179 39.5064C53.179 41.2277 53.8618 42.8788 55.0776 44.0974L57.2013 41.9785C56.5467 41.3223 56.179 40.4333 56.179 39.5064H53.179ZM55.0776 44.0974L58.9421 47.9707L61.0658 45.8518L57.2013 41.9785L55.0776 44.0974ZM58.9421 47.9707C60.1615 49.1929 61.8171 49.8797 63.5435 49.8797V46.8797C62.6139 46.8797 61.7225 46.5099 61.0658 45.8518L58.9421 47.9707ZM63.5435 49.8797H67.9485V46.8797H63.5435V49.8797ZM67.9485 49.8797C69.2895 49.8797 70.3765 48.7926 70.3765 47.4517H67.3765C67.3765 47.1358 67.6326 46.8797 67.9485 46.8797V49.8797ZM70.3765 47.4517C70.3765 47.7676 70.1205 48.0236 69.8046 48.0236V45.0236C68.4636 45.0236 67.3765 46.1107 67.3765 47.4517H70.3765ZM69.8046 48.0236H71.4942V45.0236H69.8046V48.0236ZM71.4942 48.0236C71.7911 48.0236 72.0758 48.1417 72.2854 48.3519L74.4092 46.233C73.6367 45.4587 72.5879 45.0236 71.4942 45.0236V48.0236ZM72.2854 48.3519L75.6135 51.6875L77.7372 49.5686L74.4092 46.233L72.2854 48.3519ZM75.6135 51.6875C76.2681 52.3437 76.6358 53.2327 76.6358 54.1596H79.6358C79.6358 52.4382 78.953 50.7872 77.7372 49.5686L75.6135 51.6875ZM76.6358 54.1596V61.1605H79.6358V54.1596H76.6358ZM76.6358 61.1605C76.6358 62.8818 77.3186 64.5329 78.5344 65.7514L80.6581 63.6325C80.0035 62.9764 79.6358 62.0874 79.6358 61.1605H76.6358ZM78.5344 65.7514L79.9345 67.1547L82.0582 65.0358L80.6581 63.6325L78.5344 65.7514ZM79.9345 67.1547C80.5891 67.8109 80.9568 68.6999 80.9568 69.6268H83.9568C83.9568 67.9054 83.274 66.2544 82.0582 65.0358L79.9345 67.1547ZM80.9568 69.6268V80.9585H83.9568V69.6268H80.9568ZM80.9568 80.9585C80.9568 82.6798 81.6396 84.3309 82.8554 85.5495L84.9791 83.4306C84.3244 82.7744 83.9568 81.8854 83.9568 80.9585H80.9568ZM82.8554 85.5495L83.6335 86.3293L85.7572 84.2104L84.9791 83.4306L82.8554 85.5495ZM83.6335 86.3293C84.8529 87.5515 86.5084 88.2384 88.2349 88.2384V85.2384C87.3053 85.2384 86.4138 84.8685 85.7572 84.2104L83.6335 86.3293ZM88.2349 88.2384H89.0244V85.2384H88.2349V88.2384ZM89.0244 88.2384C90.7508 88.2384 92.4064 87.5515 93.6258 86.3293L91.5021 84.2104C90.8454 84.8685 89.954 85.2384 89.0244 85.2384V88.2384ZM93.6258 86.3293L94.4039 85.5495L92.2802 83.4306L91.5021 84.2104L93.6258 86.3293ZM94.4039 85.5495C95.6197 84.3309 96.3025 82.6798 96.3025 80.9585H93.3025C93.3025 81.8854 92.9348 82.7744 92.2802 83.4306L94.4039 85.5495ZM96.3025 80.9585V69.307H93.3025V80.9585H96.3025ZM96.3025 69.307C96.3025 67.7904 95.7009 66.3358 94.6298 65.2622L92.506 67.3811C93.016 67.8923 93.3025 68.5849 93.3025 69.307H96.3025ZM94.6298 65.2622C94.1198 64.751 93.8333 64.0584 93.8333 63.3363H90.8333C90.8333 64.8529 91.4349 66.3075 92.506 67.3811L94.6298 65.2622ZM93.8333 63.3363V63.1201H90.8333V63.3363H93.8333ZM93.8333 63.1201C93.8333 62.398 94.1198 61.7054 94.6298 61.1942L92.506 59.0753C91.4349 60.1489 90.8333 61.6035 90.8333 63.1201H93.8333ZM94.6298 61.1942L94.7719 61.0518L92.6481 58.9329L92.506 59.0753L94.6298 61.1942ZM94.7719 61.0518C95.752 60.0694 96.3025 58.7384 96.3025 57.3507H93.3025C93.3025 57.9439 93.0672 58.5129 92.6482 58.9329L94.7719 61.0518ZM96.3025 57.3507V57.1149H93.3025V57.3507H96.3025ZM96.3025 57.1149C96.3025 55.8782 95.8119 54.692 94.9384 53.8165L92.8147 55.9354C93.127 56.2485 93.3025 56.6727 93.3025 57.1149H96.3025ZM94.9384 53.8165C94.626 53.5034 94.4506 53.0792 94.4506 52.6369H91.4506C91.4506 53.8737 91.9412 55.0599 92.8147 55.9354L94.9384 53.8165ZM94.4506 52.6369V48.2911H91.4506V52.6369H94.4506ZM94.4506 48.2911C94.4506 47.9527 94.5848 47.6281 94.8238 47.3886L92.7001 45.2697C91.9 46.0716 91.4506 47.1582 91.4506 48.2911H94.4506ZM94.8238 47.3886L95.4632 46.7477L93.3395 44.6288L92.7001 45.2697L94.8238 47.3886ZM95.4632 46.7477C96.0321 46.1776 97.0062 46.5804 97.0062 47.3858H100.006C100.006 43.9061 95.7972 42.1655 93.3395 44.6288L95.4632 46.7477ZM97.0062 47.3858C97.0062 48.4195 97.4162 49.411 98.1463 50.1428L100.27 48.0238C100.101 47.8545 100.006 47.625 100.006 47.3858H97.0062ZM98.1463 50.1428L105.937 57.9507L108.06 55.8318L100.27 48.0239L98.1463 50.1428ZM105.937 57.9507C106.147 58.1618 106.265 58.4478 106.265 58.746H109.265C109.265 57.6534 108.832 56.6053 108.06 55.8318L105.937 57.9507ZM106.265 58.746V59.627H109.265V58.746H106.265ZM106.265 59.627C106.265 61.4193 107.718 62.8722 109.511 62.8722V59.8722C109.375 59.8722 109.265 59.7624 109.265 59.627H106.265ZM109.511 62.8722C110.372 62.8722 111.199 62.5292 111.808 61.9191L109.684 59.8002C109.638 59.8463 109.576 59.8722 109.511 59.8722V62.8722ZM111.808 61.9191L115.387 58.3319L113.263 56.213L109.684 59.8002L111.808 61.9191ZM115.387 58.3319C116.043 57.6738 116.935 57.304 117.865 57.304V54.304C116.138 54.304 114.483 54.9908 113.263 56.213L115.387 58.3319ZM117.865 57.304H118.654V54.304H117.865V57.304ZM118.654 57.304C120.38 57.304 122.036 56.6171 123.255 55.3949L121.132 53.276C120.475 53.9341 119.584 54.304 118.654 54.304V57.304ZM123.255 55.3949L124.404 54.2437L122.28 52.1248L121.132 53.276L123.255 55.3949ZM124.404 54.2437C124.82 53.8264 125.386 53.5918 125.975 53.5918V50.5918C124.589 50.5918 123.259 51.1434 122.28 52.1248L124.404 54.2437ZM125.975 53.5918H126.205V50.5918H125.975V53.5918ZM126.205 53.5918C127.445 53.5918 128.633 53.0989 129.508 52.2218L127.384 50.1028C127.072 50.4159 126.648 50.5918 126.205 50.5918V53.5918ZM129.508 52.2218L129.793 51.9359L127.669 49.817L127.384 50.1029L129.508 52.2218ZM129.793 51.9359C130.483 51.2444 130.87 50.3075 130.87 49.3307H127.87C127.87 49.5131 127.798 49.6879 127.669 49.817L129.793 51.9359ZM130.87 49.3307C130.87 48.9505 131.179 48.6423 131.559 48.6423V45.6423C129.522 45.6423 127.87 47.2937 127.87 49.3307H130.87ZM131.559 48.6423H133.074V45.6423H131.559V48.6423ZM133.074 48.6423C134.291 48.6423 135.278 49.629 135.278 50.846H138.278C138.278 47.9721 135.948 45.6423 133.074 45.6423V48.6423ZM135.278 50.846V51.9569H138.278V50.846H135.278ZM135.278 51.9569C135.278 52.8346 134.93 53.6765 134.31 54.2979L136.433 56.4168C137.614 55.233 138.278 53.6291 138.278 51.9569H135.278ZM134.31 54.2979L127.922 60.7003L130.046 62.8192L136.433 56.4168L134.31 54.2979ZM127.922 60.7003C127.265 61.3584 126.374 61.7282 125.444 61.7282V64.7282C127.171 64.7282 128.826 64.0414 130.046 62.8192L127.922 60.7003ZM125.444 61.7282H122.378V64.7282H125.444V61.7282ZM122.378 61.7282C119.616 61.7282 117.377 63.9674 117.377 66.7297H120.377C120.377 65.6243 121.273 64.7282 122.378 64.7282V61.7282ZM117.377 66.7297V67.4094H120.377V66.7297H117.377ZM117.377 67.4094C117.377 68.2986 117.729 69.1516 118.357 69.7811L120.481 67.6621C120.414 67.5951 120.377 67.5042 120.377 67.4094H117.377ZM118.357 69.7811C118.497 69.9207 118.497 70.1468 118.357 70.2865L120.481 72.4054C121.789 71.0947 121.789 68.9728 120.481 67.6622L118.357 69.7811ZM118.357 70.2865L112.485 76.1722L114.609 78.2911L120.481 72.4054L118.357 70.2865ZM112.485 76.1722C111.269 77.3908 110.586 79.0418 110.586 80.7632H113.586C113.586 79.8363 113.954 78.9472 114.609 78.2911L112.485 76.1722ZM110.586 80.7632V80.9585H113.586V80.7632H110.586ZM110.586 80.9585C110.586 82.6798 111.269 84.3309 112.485 85.5495L114.609 83.4306C113.954 82.7744 113.586 81.8854 113.586 80.9585H110.586ZM112.485 85.5495L120.675 93.7583L122.799 91.6394L114.609 83.4306L112.485 85.5495ZM120.675 93.7583C121.33 94.4145 121.698 95.3035 121.698 96.2304H124.698C124.698 94.509 124.015 92.858 122.799 91.6394L120.675 93.7583ZM121.698 96.2304V96.4257H124.698V96.2304H121.698ZM121.698 96.4257C121.698 98.147 122.38 99.7981 123.596 101.017L125.72 98.8978C125.065 98.2416 124.698 97.3526 124.698 96.4257H121.698ZM123.596 101.017L129.317 106.751L131.441 104.632L125.72 98.8978L123.596 101.017ZM129.317 106.751C129.972 107.407 130.34 108.296 130.34 109.223H133.34C133.34 107.501 132.657 105.85 131.441 104.632L129.317 106.751ZM130.34 109.223V110.656H133.34V109.223H130.34ZM130.34 110.656C130.34 112.377 131.022 114.028 132.238 115.246L134.362 113.128C133.707 112.471 133.34 111.582 133.34 110.656H130.34ZM132.238 115.246L136.725 119.743L138.848 117.624L134.362 113.128L132.238 115.246ZM136.725 119.743C137.379 120.399 137.747 121.288 137.747 122.215H140.747C140.747 120.494 140.064 118.843 138.848 117.624L136.725 119.743ZM137.747 122.215V122.572H140.747V122.215H137.747ZM137.747 122.572C137.747 126.162 140.657 129.072 144.247 129.072V126.072C142.314 126.072 140.747 124.505 140.747 122.572H137.747ZM144.247 129.072H151.37V126.072H144.247V129.072ZM151.37 129.072C151.804 129.072 152.23 129.152 152.628 129.305L153.705 126.506C152.967 126.222 152.176 126.072 151.37 126.072V129.072ZM151.749 127.415C150.011 132.435 147.706 137.19 144.91 141.604L147.445 143.21C150.363 138.602 152.77 133.638 154.584 128.396L151.749 127.415ZM146.069 140.911C145.984 140.917 145.9 140.92 145.814 140.92V143.92C145.972 143.92 146.13 143.915 146.286 143.903L146.069 140.911ZM145.814 140.92H144.408V143.92H145.814V140.92ZM144.408 140.92C142.681 140.92 141.026 141.607 139.806 142.829L141.93 144.948C142.587 144.29 143.478 143.92 144.408 143.92V140.92ZM139.806 142.829L137.181 145.461L139.305 147.579L141.93 144.948L139.806 142.829ZM137.181 145.461C136.524 146.119 135.633 146.488 134.703 146.488V149.488C136.43 149.488 138.085 148.802 139.305 147.579L137.181 145.461ZM134.703 146.488H132.991V149.488H134.703V146.488ZM132.991 146.488C132.652 146.488 132.327 146.354 132.088 146.114L129.964 148.232C130.766 149.037 131.856 149.488 132.991 149.488V146.488ZM132.088 146.114L129.312 143.332L127.189 145.451L129.964 148.233L132.088 146.114ZM129.312 143.332C127.643 141.659 124.784 142.841 124.784 145.204H127.784C127.784 145.515 127.408 145.671 127.189 145.451L129.312 143.332ZM124.784 145.204C124.784 144.894 125.16 144.738 125.379 144.958L123.256 147.077C124.925 148.75 127.784 147.568 127.784 145.204H124.784ZM125.379 144.958L124.71 144.287L122.586 146.406L123.256 147.077L125.379 144.958ZM124.71 144.287C124.702 144.279 124.698 144.268 124.698 144.257H121.698C121.698 145.063 122.017 145.836 122.586 146.406L124.71 144.287ZM124.698 144.257V137.514H121.698V144.257H124.698ZM124.698 137.514C124.698 137.091 124.865 136.686 125.164 136.386L123.04 134.267C122.18 135.129 121.698 136.297 121.698 137.514H124.698ZM125.164 136.386C126.954 134.592 126.954 131.688 125.164 129.894L123.04 132.012C123.662 132.636 123.662 133.644 123.04 134.267L125.164 136.386ZM125.164 129.894L123.251 127.976L121.127 130.095L123.04 132.012L125.164 129.894ZM123.251 127.976C122.596 127.32 122.228 126.431 122.228 125.504H119.228C119.228 127.225 119.911 128.876 121.127 130.095L123.251 127.976ZM122.228 125.504V122.215H119.228V125.504H122.228ZM122.228 122.215C122.228 120.494 121.546 118.843 120.33 117.624L118.206 119.743C118.861 120.399 119.228 121.288 119.228 122.215H122.228ZM120.33 117.624L117.164 114.451L115.04 116.57L118.206 119.743L120.33 117.624ZM117.164 114.451C115.724 113.008 113.387 113.008 111.947 114.451L114.071 116.57C114.338 116.302 114.773 116.302 115.04 116.57L117.164 114.451ZM111.947 114.451C110.512 115.89 110.512 118.218 111.947 119.657L114.071 117.538C113.804 117.27 113.804 116.838 114.071 116.57L111.947 114.451ZM111.947 119.657L112.589 120.301L114.713 118.182L114.071 117.538L111.947 119.657ZM112.589 120.3C112.888 120.6 113.056 121.005 113.056 121.428H116.056C116.056 120.211 115.573 119.043 114.713 118.182L112.589 120.3ZM113.056 121.428V132.31H116.056V121.428H113.056ZM113.056 132.31C113.056 134.031 113.738 135.682 114.954 136.901L117.078 134.782C116.423 134.126 116.056 133.236 116.056 132.31H113.056ZM114.954 136.901L115.12 137.066L117.243 134.948L117.078 134.782L114.954 136.901ZM115.12 137.066C115.774 137.723 116.142 138.612 116.142 139.539H119.142C119.142 137.817 118.459 136.166 117.243 134.948L115.12 137.066ZM116.142 139.539V140.353H119.142V139.539H116.142ZM116.142 140.353C116.142 142.074 116.825 143.725 118.041 144.944L120.164 142.825C119.51 142.168 119.142 141.279 119.142 140.353H116.142ZM118.041 144.944L124.996 151.915L127.12 149.796L120.164 142.825L118.041 144.944ZM124.996 151.915C125.651 152.571 126.019 153.46 126.019 154.387H129.019C129.019 152.666 128.336 151.015 127.12 149.796L124.996 151.915ZM126.019 154.387V158.913H129.019V154.387H126.019ZM126.019 158.913C126.019 159.84 125.651 160.729 124.996 161.385L127.12 163.504C128.336 162.286 129.019 160.635 129.019 158.913H126.019ZM124.996 161.385L123.135 163.251L125.259 165.369L127.12 163.504L124.996 161.385Z" fill="#4F4046"/>
<mask id="path-5-outside-1_124_1242" maskUnits="userSpaceOnUse" x="0.144012" y="90.872" width="153" height="73" fill="black">
<rect fill="white" x="0.144012" y="90.872" width="153" height="73"/>
<path d="M7.14401 124.672L11.128 119.68C13.08 121.376 14.952 122.624 16.744 123.424C18.568 124.192 20.488 124.576 22.504 124.576C24.584 124.576 26.248 124.192 27.496 123.424C28.744 122.656 29.368 121.632 29.368 120.352C29.368 119.2 28.936 118.304 28.072 117.664C27.24 117.024 25.832 116.544 23.848 116.224L17.176 115.072C14.296 114.592 12.104 113.584 10.6 112.048C9.12801 110.512 8.39201 108.528 8.39201 106.096C8.39201 102.96 9.57601 100.48 11.944 98.656C14.344 96.832 17.576 95.92 21.64 95.92C24.072 95.92 26.52 96.336 28.984 97.168C31.48 98 33.656 99.152 35.512 100.624L31.768 105.808C29.976 104.432 28.216 103.424 26.488 102.784C24.76 102.112 22.984 101.776 21.16 101.776C19.304 101.776 17.816 102.128 16.696 102.832C15.576 103.504 15.016 104.416 15.016 105.568C15.016 106.592 15.384 107.392 16.12 107.968C16.856 108.544 18.088 108.96 19.816 109.216L26.152 110.272C29.48 110.816 31.976 111.888 33.64 113.488C35.336 115.056 36.184 117.136 36.184 119.728C36.184 122.992 34.888 125.6 32.296 127.552C29.736 129.504 26.312 130.48 22.024 130.48C19.336 130.48 16.68 129.968 14.056 128.944C11.464 127.92 9.16001 126.496 7.14401 124.672Z"/>
<path d="M40.3521 130V96.4H47.3121V123.856H65.6961V130H40.3521Z"/>
<path d="M84.6678 124.048C86.4278 124.048 88.0758 123.68 89.6118 122.944C91.1478 122.208 92.5078 121.152 93.6918 119.776L98.2518 124.288C96.6518 126.176 94.6038 127.68 92.1078 128.8C89.6438 129.92 87.0998 130.48 84.4758 130.48C81.9478 130.48 79.5798 130.032 77.3718 129.136C75.1958 128.24 73.3078 127.024 71.7078 125.488C70.1078 123.952 68.8438 122.128 67.9158 120.016C67.0198 117.904 66.5718 115.632 66.5718 113.2C66.5718 110.768 67.0358 108.496 67.9638 106.384C68.8918 104.24 70.1558 102.4 71.7558 100.864C73.3558 99.328 75.2438 98.112 77.4198 97.216C79.6278 96.32 81.9798 95.872 84.4758 95.872C87.1638 95.872 89.7718 96.448 92.2998 97.6C94.8278 98.72 96.8758 100.24 98.4438 102.16L93.7398 106.816C92.5558 105.344 91.1638 104.224 89.5638 103.456C87.9638 102.656 86.2678 102.256 84.4758 102.256C82.9718 102.256 81.5478 102.544 80.2038 103.12C78.8918 103.664 77.7558 104.432 76.7958 105.424C75.8358 106.384 75.0838 107.536 74.5398 108.88C73.9958 110.192 73.7238 111.632 73.7238 113.2C73.7238 114.736 73.9958 116.176 74.5398 117.52C75.1158 118.832 75.8838 119.968 76.8438 120.928C77.8358 121.888 78.9878 122.656 80.2998 123.232C81.6438 123.776 83.0998 124.048 84.6678 124.048Z"/>
<path d="M18.151 150.652C19.141 150.652 20.068 150.445 20.932 150.031C21.796 149.617 22.561 149.023 23.227 148.249L25.792 150.787C24.892 151.849 23.74 152.695 22.336 153.325C20.95 153.955 19.519 154.27 18.043 154.27C16.621 154.27 15.289 154.018 14.047 153.514C12.823 153.01 11.761 152.326 10.861 151.462C9.96101 150.598 9.25001 149.572 8.72801 148.384C8.22401 147.196 7.97201 145.918 7.97201 144.55C7.97201 143.182 8.23301 141.904 8.75501 140.716C9.27701 139.51 9.98801 138.475 10.888 137.611C11.788 136.747 12.85 136.063 14.074 135.559C15.316 135.055 16.639 134.803 18.043 134.803C19.555 134.803 21.022 135.127 22.444 135.775C23.866 136.405 25.018 137.26 25.9 138.34L23.254 140.959C22.588 140.131 21.805 139.501 20.905 139.069C20.005 138.619 19.051 138.394 18.043 138.394C17.197 138.394 16.396 138.556 15.64 138.88C14.902 139.186 14.263 139.618 13.723 140.176C13.183 140.716 12.76 141.364 12.454 142.12C12.148 142.858 11.995 143.668 11.995 144.55C11.995 145.414 12.148 146.224 12.454 146.98C12.778 147.718 13.21 148.357 13.75 148.897C14.308 149.437 14.956 149.869 15.694 150.193C16.45 150.499 17.269 150.652 18.151 150.652Z"/>
<path d="M28.0809 154V135.1H31.9959V142.687H40.6899V135.1H44.6049V154H40.6899V146.278H31.9959V154H28.0809Z"/>
<path d="M46.2319 154L54.0079 135.1H58.5439L66.2119 154H61.9729L60.0559 149.032H52.2529L50.3089 154H46.2319ZM53.4679 145.9H58.8679L56.1949 138.934L53.4679 145.9Z"/>
<path d="M77.9682 152.65L71.4342 140.095V154H67.8162V135.1H72.8382L78.0222 145.252L83.2062 135.1H88.2282V154H84.5293V140.122L77.9682 152.65Z"/>
<path d="M91.6258 135.1H100.509C102.399 135.1 103.938 135.586 105.126 136.558C106.314 137.512 106.908 138.754 106.908 140.284C106.908 141.112 106.701 141.868 106.287 142.552C105.873 143.236 105.306 143.803 104.586 144.253C105.486 144.685 106.206 145.279 106.746 146.035C107.286 146.773 107.556 147.601 107.556 148.519C107.556 150.157 106.944 151.48 105.72 152.488C104.514 153.496 102.921 154 100.941 154H91.6258V135.1ZM100.266 138.34H95.5408V142.822H100.266C101.094 142.822 101.76 142.624 102.264 142.228C102.768 141.814 103.02 141.265 103.02 140.581C103.02 139.897 102.768 139.357 102.264 138.961C101.76 138.547 101.094 138.34 100.266 138.34ZM100.644 150.76C101.544 150.76 102.264 150.544 102.804 150.112C103.344 149.662 103.614 149.059 103.614 148.303C103.614 147.583 103.344 146.998 102.804 146.548C102.264 146.098 101.544 145.873 100.644 145.873H95.5408V150.76H100.644Z"/>
<path d="M110.294 154V135.1H124.82V138.502H114.209V142.822H121.202V146.116H114.209V150.598H124.928V154H110.294Z"/>
<path d="M127.696 154V135.1H136.93C137.884 135.1 138.757 135.244 139.549 135.532C140.359 135.82 141.052 136.225 141.628 136.747C142.204 137.251 142.654 137.863 142.978 138.583C143.302 139.303 143.464 140.095 143.464 140.959C143.464 142.147 143.122 143.209 142.438 144.145C141.772 145.081 140.881 145.774 139.765 146.224L143.95 154H139.576L135.877 146.764H131.611V154H127.696ZM136.579 138.475H131.611V143.551H136.579C137.461 143.551 138.163 143.317 138.685 142.849C139.225 142.381 139.495 141.769 139.495 141.013C139.495 140.257 139.225 139.645 138.685 139.177C138.163 138.709 137.461 138.475 136.579 138.475Z"/>
</mask>
<path d="M7.14401 124.672L11.128 119.68C13.08 121.376 14.952 122.624 16.744 123.424C18.568 124.192 20.488 124.576 22.504 124.576C24.584 124.576 26.248 124.192 27.496 123.424C28.744 122.656 29.368 121.632 29.368 120.352C29.368 119.2 28.936 118.304 28.072 117.664C27.24 117.024 25.832 116.544 23.848 116.224L17.176 115.072C14.296 114.592 12.104 113.584 10.6 112.048C9.12801 110.512 8.39201 108.528 8.39201 106.096C8.39201 102.96 9.57601 100.48 11.944 98.656C14.344 96.832 17.576 95.92 21.64 95.92C24.072 95.92 26.52 96.336 28.984 97.168C31.48 98 33.656 99.152 35.512 100.624L31.768 105.808C29.976 104.432 28.216 103.424 26.488 102.784C24.76 102.112 22.984 101.776 21.16 101.776C19.304 101.776 17.816 102.128 16.696 102.832C15.576 103.504 15.016 104.416 15.016 105.568C15.016 106.592 15.384 107.392 16.12 107.968C16.856 108.544 18.088 108.96 19.816 109.216L26.152 110.272C29.48 110.816 31.976 111.888 33.64 113.488C35.336 115.056 36.184 117.136 36.184 119.728C36.184 122.992 34.888 125.6 32.296 127.552C29.736 129.504 26.312 130.48 22.024 130.48C19.336 130.48 16.68 129.968 14.056 128.944C11.464 127.92 9.16001 126.496 7.14401 124.672Z" fill="#D6705C"/>
<path d="M40.3521 130V96.4H47.3121V123.856H65.6961V130H40.3521Z" fill="#D6705C"/>
<path d="M84.6678 124.048C86.4278 124.048 88.0758 123.68 89.6118 122.944C91.1478 122.208 92.5078 121.152 93.6918 119.776L98.2518 124.288C96.6518 126.176 94.6038 127.68 92.1078 128.8C89.6438 129.92 87.0998 130.48 84.4758 130.48C81.9478 130.48 79.5798 130.032 77.3718 129.136C75.1958 128.24 73.3078 127.024 71.7078 125.488C70.1078 123.952 68.8438 122.128 67.9158 120.016C67.0198 117.904 66.5718 115.632 66.5718 113.2C66.5718 110.768 67.0358 108.496 67.9638 106.384C68.8918 104.24 70.1558 102.4 71.7558 100.864C73.3558 99.328 75.2438 98.112 77.4198 97.216C79.6278 96.32 81.9798 95.872 84.4758 95.872C87.1638 95.872 89.7718 96.448 92.2998 97.6C94.8278 98.72 96.8758 100.24 98.4438 102.16L93.7398 106.816C92.5558 105.344 91.1638 104.224 89.5638 103.456C87.9638 102.656 86.2678 102.256 84.4758 102.256C82.9718 102.256 81.5478 102.544 80.2038 103.12C78.8918 103.664 77.7558 104.432 76.7958 105.424C75.8358 106.384 75.0838 107.536 74.5398 108.88C73.9958 110.192 73.7238 111.632 73.7238 113.2C73.7238 114.736 73.9958 116.176 74.5398 117.52C75.1158 118.832 75.8838 119.968 76.8438 120.928C77.8358 121.888 78.9878 122.656 80.2998 123.232C81.6438 123.776 83.0998 124.048 84.6678 124.048Z" fill="#D6705C"/>
<path d="M18.151 150.652C19.141 150.652 20.068 150.445 20.932 150.031C21.796 149.617 22.561 149.023 23.227 148.249L25.792 150.787C24.892 151.849 23.74 152.695 22.336 153.325C20.95 153.955 19.519 154.27 18.043 154.27C16.621 154.27 15.289 154.018 14.047 153.514C12.823 153.01 11.761 152.326 10.861 151.462C9.96101 150.598 9.25001 149.572 8.72801 148.384C8.22401 147.196 7.97201 145.918 7.97201 144.55C7.97201 143.182 8.23301 141.904 8.75501 140.716C9.27701 139.51 9.98801 138.475 10.888 137.611C11.788 136.747 12.85 136.063 14.074 135.559C15.316 135.055 16.639 134.803 18.043 134.803C19.555 134.803 21.022 135.127 22.444 135.775C23.866 136.405 25.018 137.26 25.9 138.34L23.254 140.959C22.588 140.131 21.805 139.501 20.905 139.069C20.005 138.619 19.051 138.394 18.043 138.394C17.197 138.394 16.396 138.556 15.64 138.88C14.902 139.186 14.263 139.618 13.723 140.176C13.183 140.716 12.76 141.364 12.454 142.12C12.148 142.858 11.995 143.668 11.995 144.55C11.995 145.414 12.148 146.224 12.454 146.98C12.778 147.718 13.21 148.357 13.75 148.897C14.308 149.437 14.956 149.869 15.694 150.193C16.45 150.499 17.269 150.652 18.151 150.652Z" fill="#D6705C"/>
<path d="M28.0809 154V135.1H31.9959V142.687H40.6899V135.1H44.6049V154H40.6899V146.278H31.9959V154H28.0809Z" fill="#D6705C"/>
<path d="M46.2319 154L54.0079 135.1H58.5439L66.2119 154H61.9729L60.0559 149.032H52.2529L50.3089 154H46.2319ZM53.4679 145.9H58.8679L56.1949 138.934L53.4679 145.9Z" fill="#D6705C"/>
<path d="M77.9682 152.65L71.4342 140.095V154H67.8162V135.1H72.8382L78.0222 145.252L83.2062 135.1H88.2282V154H84.5293V140.122L77.9682 152.65Z" fill="#D6705C"/>
<path d="M91.6258 135.1H100.509C102.399 135.1 103.938 135.586 105.126 136.558C106.314 137.512 106.908 138.754 106.908 140.284C106.908 141.112 106.701 141.868 106.287 142.552C105.873 143.236 105.306 143.803 104.586 144.253C105.486 144.685 106.206 145.279 106.746 146.035C107.286 146.773 107.556 147.601 107.556 148.519C107.556 150.157 106.944 151.48 105.72 152.488C104.514 153.496 102.921 154 100.941 154H91.6258V135.1ZM100.266 138.34H95.5408V142.822H100.266C101.094 142.822 101.76 142.624 102.264 142.228C102.768 141.814 103.02 141.265 103.02 140.581C103.02 139.897 102.768 139.357 102.264 138.961C101.76 138.547 101.094 138.34 100.266 138.34ZM100.644 150.76C101.544 150.76 102.264 150.544 102.804 150.112C103.344 149.662 103.614 149.059 103.614 148.303C103.614 147.583 103.344 146.998 102.804 146.548C102.264 146.098 101.544 145.873 100.644 145.873H95.5408V150.76H100.644Z" fill="#D6705C"/>
<path d="M110.294 154V135.1H124.82V138.502H114.209V142.822H121.202V146.116H114.209V150.598H124.928V154H110.294Z" fill="#D6705C"/>
<path d="M127.696 154V135.1H136.93C137.884 135.1 138.757 135.244 139.549 135.532C140.359 135.82 141.052 136.225 141.628 136.747C142.204 137.251 142.654 137.863 142.978 138.583C143.302 139.303 143.464 140.095 143.464 140.959C143.464 142.147 143.122 143.209 142.438 144.145C141.772 145.081 140.881 145.774 139.765 146.224L143.95 154H139.576L135.877 146.764H131.611V154H127.696ZM136.579 138.475H131.611V143.551H136.579C137.461 143.551 138.163 143.317 138.685 142.849C139.225 142.381 139.495 141.769 139.495 141.013C139.495 140.257 139.225 139.645 138.685 139.177C138.163 138.709 137.461 138.475 136.579 138.475Z" fill="#D6705C"/>
<path d="M7.14401 124.672L11.128 119.68C13.08 121.376 14.952 122.624 16.744 123.424C18.568 124.192 20.488 124.576 22.504 124.576C24.584 124.576 26.248 124.192 27.496 123.424C28.744 122.656 29.368 121.632 29.368 120.352C29.368 119.2 28.936 118.304 28.072 117.664C27.24 117.024 25.832 116.544 23.848 116.224L17.176 115.072C14.296 114.592 12.104 113.584 10.6 112.048C9.12801 110.512 8.39201 108.528 8.39201 106.096C8.39201 102.96 9.57601 100.48 11.944 98.656C14.344 96.832 17.576 95.92 21.64 95.92C24.072 95.92 26.52 96.336 28.984 97.168C31.48 98 33.656 99.152 35.512 100.624L31.768 105.808C29.976 104.432 28.216 103.424 26.488 102.784C24.76 102.112 22.984 101.776 21.16 101.776C19.304 101.776 17.816 102.128 16.696 102.832C15.576 103.504 15.016 104.416 15.016 105.568C15.016 106.592 15.384 107.392 16.12 107.968C16.856 108.544 18.088 108.96 19.816 109.216L26.152 110.272C29.48 110.816 31.976 111.888 33.64 113.488C35.336 115.056 36.184 117.136 36.184 119.728C36.184 122.992 34.888 125.6 32.296 127.552C29.736 129.504 26.312 130.48 22.024 130.48C19.336 130.48 16.68 129.968 14.056 128.944C11.464 127.92 9.16001 126.496 7.14401 124.672Z" stroke="#4F4046" stroke-width="10" mask="url(#path-5-outside-1_124_1242)"/>
<path d="M40.3521 130V96.4H47.3121V123.856H65.6961V130H40.3521Z" stroke="#4F4046" stroke-width="10" mask="url(#path-5-outside-1_124_1242)"/>
<path d="M84.6678 124.048C86.4278 124.048 88.0758 123.68 89.6118 122.944C91.1478 122.208 92.5078 121.152 93.6918 119.776L98.2518 124.288C96.6518 126.176 94.6038 127.68 92.1078 128.8C89.6438 129.92 87.0998 130.48 84.4758 130.48C81.9478 130.48 79.5798 130.032 77.3718 129.136C75.1958 128.24 73.3078 127.024 71.7078 125.488C70.1078 123.952 68.8438 122.128 67.9158 120.016C67.0198 117.904 66.5718 115.632 66.5718 113.2C66.5718 110.768 67.0358 108.496 67.9638 106.384C68.8918 104.24 70.1558 102.4 71.7558 100.864C73.3558 99.328 75.2438 98.112 77.4198 97.216C79.6278 96.32 81.9798 95.872 84.4758 95.872C87.1638 95.872 89.7718 96.448 92.2998 97.6C94.8278 98.72 96.8758 100.24 98.4438 102.16L93.7398 106.816C92.5558 105.344 91.1638 104.224 89.5638 103.456C87.9638 102.656 86.2678 102.256 84.4758 102.256C82.9718 102.256 81.5478 102.544 80.2038 103.12C78.8918 103.664 77.7558 104.432 76.7958 105.424C75.8358 106.384 75.0838 107.536 74.5398 108.88C73.9958 110.192 73.7238 111.632 73.7238 113.2C73.7238 114.736 73.9958 116.176 74.5398 117.52C75.1158 118.832 75.8838 119.968 76.8438 120.928C77.8358 121.888 78.9878 122.656 80.2998 123.232C81.6438 123.776 83.0998 124.048 84.6678 124.048Z" stroke="#4F4046" stroke-width="10" mask="url(#path-5-outside-1_124_1242)"/>
<path d="M18.151 150.652C19.141 150.652 20.068 150.445 20.932 150.031C21.796 149.617 22.561 149.023 23.227 148.249L25.792 150.787C24.892 151.849 23.74 152.695 22.336 153.325C20.95 153.955 19.519 154.27 18.043 154.27C16.621 154.27 15.289 154.018 14.047 153.514C12.823 153.01 11.761 152.326 10.861 151.462C9.96101 150.598 9.25001 149.572 8.72801 148.384C8.22401 147.196 7.97201 145.918 7.97201 144.55C7.97201 143.182 8.23301 141.904 8.75501 140.716C9.27701 139.51 9.98801 138.475 10.888 137.611C11.788 136.747 12.85 136.063 14.074 135.559C15.316 135.055 16.639 134.803 18.043 134.803C19.555 134.803 21.022 135.127 22.444 135.775C23.866 136.405 25.018 137.26 25.9 138.34L23.254 140.959C22.588 140.131 21.805 139.501 20.905 139.069C20.005 138.619 19.051 138.394 18.043 138.394C17.197 138.394 16.396 138.556 15.64 138.88C14.902 139.186 14.263 139.618 13.723 140.176C13.183 140.716 12.76 141.364 12.454 142.12C12.148 142.858 11.995 143.668 11.995 144.55C11.995 145.414 12.148 146.224 12.454 146.98C12.778 147.718 13.21 148.357 13.75 148.897C14.308 149.437 14.956 149.869 15.694 150.193C16.45 150.499 17.269 150.652 18.151 150.652Z" stroke="#4F4046" stroke-width="10" mask="url(#path-5-outside-1_124_1242)"/>
<path d="M28.0809 154V135.1H31.9959V142.687H40.6899V135.1H44.6049V154H40.6899V146.278H31.9959V154H28.0809Z" stroke="#4F4046" stroke-width="10" mask="url(#path-5-outside-1_124_1242)"/>
<path d="M46.2319 154L54.0079 135.1H58.5439L66.2119 154H61.9729L60.0559 149.032H52.2529L50.3089 154H46.2319ZM53.4679 145.9H58.8679L56.1949 138.934L53.4679 145.9Z" stroke="#4F4046" stroke-width="10" mask="url(#path-5-outside-1_124_1242)"/>
<path d="M77.9682 152.65L71.4342 140.095V154H67.8162V135.1H72.8382L78.0222 145.252L83.2062 135.1H88.2282V154H84.5293V140.122L77.9682 152.65Z" stroke="#4F4046" stroke-width="10" mask="url(#path-5-outside-1_124_1242)"/>
<path d="M91.6258 135.1H100.509C102.399 135.1 103.938 135.586 105.126 136.558C106.314 137.512 106.908 138.754 106.908 140.284C106.908 141.112 106.701 141.868 106.287 142.552C105.873 143.236 105.306 143.803 104.586 144.253C105.486 144.685 106.206 145.279 106.746 146.035C107.286 146.773 107.556 147.601 107.556 148.519C107.556 150.157 106.944 151.48 105.72 152.488C104.514 153.496 102.921 154 100.941 154H91.6258V135.1ZM100.266 138.34H95.5408V142.822H100.266C101.094 142.822 101.76 142.624 102.264 142.228C102.768 141.814 103.02 141.265 103.02 140.581C103.02 139.897 102.768 139.357 102.264 138.961C101.76 138.547 101.094 138.34 100.266 138.34ZM100.644 150.76C101.544 150.76 102.264 150.544 102.804 150.112C103.344 149.662 103.614 149.059 103.614 148.303C103.614 147.583 103.344 146.998 102.804 146.548C102.264 146.098 101.544 145.873 100.644 145.873H95.5408V150.76H100.644Z" stroke="#4F4046" stroke-width="10" mask="url(#path-5-outside-1_124_1242)"/>
<path d="M110.294 154V135.1H124.82V138.502H114.209V142.822H121.202V146.116H114.209V150.598H124.928V154H110.294Z" stroke="#4F4046" stroke-width="10" mask="url(#path-5-outside-1_124_1242)"/>
<path d="M127.696 154V135.1H136.93C137.884 135.1 138.757 135.244 139.549 135.532C140.359 135.82 141.052 136.225 141.628 136.747C142.204 137.251 142.654 137.863 142.978 138.583C143.302 139.303 143.464 140.095 143.464 140.959C143.464 142.147 143.122 143.209 142.438 144.145C141.772 145.081 140.881 145.774 139.765 146.224L143.95 154H139.576L135.877 146.764H131.611V154H127.696ZM136.579 138.475H131.611V143.551H136.579C137.461 143.551 138.163 143.317 138.685 142.849C139.225 142.381 139.495 141.769 139.495 141.013C139.495 140.257 139.225 139.645 138.685 139.177C138.163 138.709 137.461 138.475 136.579 138.475Z" stroke="#4F4046" stroke-width="10" mask="url(#path-5-outside-1_124_1242)"/>
</svg>
