<svg width="48" height="48" viewBox="0 0 48 48" fill="none" xmlns="http://www.w3.org/2000/svg">
<path d="M38.9401 21.08C37.9923 18.9715 36.4556 17.1816 34.5148 15.9256C32.5741 14.6696 30.3118 14.001 28.0001 14C27.0623 14.0076 26.1289 14.1284 25.2201 14.36C24.0817 12.7531 22.4942 11.5181 20.6566 10.8098C18.8191 10.1016 16.8134 9.95168 14.891 10.3789C12.9686 10.8061 11.2151 11.7914 9.85045 13.2112C8.48582 14.631 7.57078 16.4222 7.22009 18.36C5.91157 18.8311 4.80733 19.7421 4.09618 20.9373C3.38504 22.1324 3.11117 23.5375 3.3214 24.9123C3.53163 26.287 4.2129 27.5461 5.24872 28.4741C6.28455 29.4021 7.61059 29.9415 9.00009 30H11.0001C10.9792 30.333 10.9792 30.667 11.0001 31C11.0001 32.8565 11.7376 34.637 13.0503 35.9497C14.3631 37.2625 16.1436 38 18.0001 38H36.3401C38.4087 37.9996 40.4088 37.2588 41.9785 35.9116C43.5483 34.5644 44.5839 32.6999 44.8981 30.6553C45.2123 28.6107 44.7842 26.5212 43.6914 24.7649C42.5985 23.0085 40.9131 21.7014 38.9401 21.08ZM9.00009 26C8.46966 26 7.96095 25.7893 7.58588 25.4142C7.21081 25.0391 7.00009 24.5304 7.00009 24C7.00009 23.4696 7.21081 22.9609 7.58588 22.5858C7.96095 22.2107 8.46966 22 9.00009 22C9.53053 22 10.0392 21.7893 10.4143 21.4142C10.7894 21.0391 11.0001 20.5304 11.0001 20C11.0001 18.4087 11.6322 16.8826 12.7575 15.7574C13.8827 14.6321 15.4088 14 17.0001 14C17.8389 14.0045 18.6674 14.1848 19.4321 14.5293C20.1969 14.8738 20.8809 15.3748 21.4401 16C20.0207 16.9235 18.8129 18.137 17.896 19.5606C16.9791 20.9842 16.3739 22.5858 16.1201 24.26C14.9896 24.5784 13.9578 25.1768 13.1201 26H9.00009ZM36.3401 34H18.0001C17.2044 34 16.4414 33.6839 15.8788 33.1213C15.3162 32.5587 15.0001 31.7956 15.0001 31C15.0001 30.2043 15.3162 29.4413 15.8788 28.8787C16.4414 28.3161 17.2044 28 18.0001 28C18.5305 28 19.0392 27.7893 19.4143 27.4142C19.7894 27.0391 20.0001 26.5304 20.0001 26C20.0087 24.1114 20.6851 22.2867 21.9098 20.8489C23.1344 19.4112 24.8282 18.453 26.6914 18.1441C28.5546 17.8351 30.467 18.1953 32.0901 19.1609C33.7133 20.1265 34.9424 21.6352 35.5601 23.42C35.6744 23.7637 35.8799 24.0699 36.1547 24.3059C36.4294 24.5419 36.7631 24.6988 37.1201 24.76C38.2553 24.9722 39.2712 25.5984 39.971 26.5172C40.6707 27.436 41.0043 28.5818 40.9072 29.7326C40.81 30.8834 40.289 31.9571 39.4452 32.7456C38.6014 33.534 37.4948 33.9811 36.3401 34V34Z" fill="#5E8280"/>
</svg>
