<svg width="48" height="48" viewBox="0 0 48 48" fill="none" xmlns="http://www.w3.org/2000/svg">
<path d="M43.2798 26.0001C42.9911 25.7614 42.6412 25.6087 42.2699 25.5592C41.8986 25.5097 41.5209 25.5654 41.1798 25.7201C39.0649 26.6878 36.7655 27.1859 34.4398 27.1801C30.1375 27.1749 26.0117 25.4689 22.9621 22.4343C19.9124 19.3996 18.1862 15.2823 18.1598 10.9801C18.1689 9.63172 18.3367 8.28915 18.6598 6.98006C18.7283 6.63114 18.7026 6.27025 18.5853 5.93457C18.468 5.59889 18.2633 5.30056 17.9923 5.07032C17.7213 4.84008 17.3938 4.68625 17.0436 4.62469C16.6934 4.56312 16.333 4.59604 15.9998 4.72006C12.8644 6.12988 10.1389 8.31358 8.0793 11.066C6.01968 13.8185 4.69354 17.0493 4.22548 20.455C3.75742 23.8607 4.16279 27.3296 5.40352 30.5356C6.64425 33.7416 8.67961 36.5796 11.3184 38.783C13.9572 40.9864 17.1127 42.4828 20.4887 43.1317C23.8646 43.7806 27.3501 43.5606 30.6177 42.4925C33.8853 41.4244 36.8277 39.5432 39.1686 37.0256C41.5094 34.508 43.1719 31.4366 43.9998 28.1001C44.1006 27.718 44.086 27.3147 43.9579 26.941C43.8298 26.5672 43.5938 26.2398 43.2798 26.0001V26.0001ZM24.2798 39.3801C20.9233 39.3564 17.6562 38.2958 14.9258 36.3435C12.1953 34.3913 10.1351 31.6427 9.02715 28.4743C7.91918 25.3059 7.81765 21.8724 8.73646 18.6441C9.65527 15.4157 11.5495 12.5503 14.1598 10.4401V10.9801C14.1651 16.357 16.3034 21.5122 20.1055 25.3143C23.9076 29.1164 29.0628 31.2548 34.4398 31.2601C35.8515 31.2652 37.2597 31.1177 38.6398 30.8201C37.2596 33.4311 35.1927 35.6157 32.6621 37.1383C30.1315 38.661 27.2332 39.4637 24.2798 39.4601V39.3801Z" fill="#5E8280"/>
</svg>
