<svg width="48" height="48" viewBox="0 0 48 48" fill="none" xmlns="http://www.w3.org/2000/svg">
<path d="M35.32 16.68C35.8447 16.6778 36.3475 16.4695 36.72 16.1L38.14 14.68C38.3494 14.5007 38.5194 14.2801 38.6395 14.0319C38.7595 13.7838 38.827 13.5135 38.8376 13.2381C38.8482 12.9627 38.8018 12.688 38.7013 12.4314C38.6007 12.1747 38.4482 11.9416 38.2533 11.7467C38.0584 11.5518 37.8253 11.3993 37.5686 11.2987C37.312 11.1982 37.0373 11.1518 36.7619 11.1624C36.4865 11.173 36.2162 11.2405 35.9681 11.3605C35.7199 11.4806 35.4993 11.6506 35.32 11.86L34 13.28C33.6275 13.6547 33.4184 14.1616 33.4184 14.69C33.4184 15.2184 33.6275 15.7253 34 16.1C34.3526 16.4507 34.8232 16.6575 35.32 16.68Z" fill="#D6705C"/>
<path d="M24 12C24.5304 12 25.0391 11.7893 25.4142 11.4142C25.7893 11.0391 26 10.5304 26 10V8C26 7.46957 25.7893 6.96086 25.4142 6.58579C25.0391 6.21071 24.5304 6 24 6C23.4696 6 22.9609 6.21071 22.5858 6.58579C22.2107 6.96086 22 7.46957 22 8V10C22 10.5304 22.2107 11.0391 22.5858 11.4142C22.9609 11.7893 23.4696 12 24 12Z" fill="#D6705C"/>
<path d="M8 24H6C5.46957 24 4.96086 24.2107 4.58579 24.5858C4.21071 24.9609 4 25.4696 4 26C4 26.5304 4.21071 27.0391 4.58579 27.4142C4.96086 27.7893 5.46957 28 6 28H8C8.53044 28 9.03914 27.7893 9.41422 27.4142C9.78929 27.0391 10 26.5304 10 26C10 25.4696 9.78929 24.9609 9.41421 24.5858C9.03914 24.2107 8.53043 24 8 24Z" fill="#D6705C"/>
<path d="M43.4142 24.5858C43.7893 24.9609 44 25.4696 44 26C44 26.5304 43.7893 27.0391 43.4142 27.4142C43.0391 27.7893 42.5304 28 42 28H40C39.4696 28 38.9609 27.7893 38.5858 27.4142C38.2107 27.0391 38 26.5304 38 26C38 25.4696 38.2107 24.9609 38.5858 24.5858C38.9609 24.2107 39.4696 24 40 24H42C42.5304 24 43.0391 24.2107 43.4142 24.5858Z" fill="#D6705C"/>
<path fill-rule="evenodd" clip-rule="evenodd" d="M31.7782 18.2218C33.8411 20.2847 35 23.0826 35 26C35 28.9174 33.8411 31.7153 31.7782 33.7782C29.7153 35.8411 26.9174 37 24 37C21.0826 37 18.2847 35.8411 16.2218 33.7782C14.1589 31.7153 13 28.9174 13 26C13 23.0826 14.1589 20.2847 16.2218 18.2218C18.2847 16.1589 21.0826 15 24 15C26.9174 15 29.7153 16.1589 31.7782 18.2218ZM19.0503 21.0503C17.7375 22.363 17 24.1435 17 26C17 27.8565 17.7375 29.637 19.0503 30.9497C20.363 32.2625 22.1435 33 24 33C25.8565 33 27.637 32.2625 28.9497 30.9497C30.2625 29.637 31 27.8565 31 26C31 24.1435 30.2625 22.363 28.9497 21.0503C27.637 19.7375 25.8565 19 24 19C22.1435 19 20.363 19.7375 19.0503 21.0503Z" fill="#D6705C"/>
<path d="M11.28 16.1C11.6525 16.4695 12.1553 16.6778 12.68 16.68C12.9432 16.6815 13.2041 16.6311 13.4478 16.5315C13.6915 16.432 13.9131 16.2854 14.1 16.1C14.4725 15.7253 14.6816 15.2184 14.6816 14.69C14.6816 14.1616 14.4725 13.6547 14.1 13.28L12.68 11.86C12.2974 11.5323 11.8052 11.3611 11.3019 11.3806C10.7985 11.4 10.3211 11.6087 9.96487 11.9649C9.60868 12.3211 9.40002 12.7985 9.38058 13.3019C9.36113 13.8052 9.53235 14.2974 9.86 14.68L11.28 16.1Z" fill="#D6705C"/>
<path d="M12.68 35.32C12.1553 35.3222 11.6525 35.5305 11.28 35.9L9.86 37.32C9.65064 37.4993 9.4806 37.7199 9.36055 37.9681C9.24051 38.2162 9.17304 38.4865 9.1624 38.7619C9.15176 39.0373 9.19818 39.312 9.29873 39.5686C9.39927 39.8253 9.55179 40.0584 9.7467 40.2533C9.94161 40.4482 10.1747 40.6007 10.4314 40.7013C10.688 40.8018 10.9627 40.8482 11.2381 40.8376C11.5135 40.827 11.7838 40.7595 12.0319 40.6395C12.2801 40.5194 12.5007 40.3494 12.68 40.14L14 38.72C14.3725 38.3453 14.5816 37.8384 14.5816 37.31C14.5816 36.7816 14.3725 36.2747 14 35.9C13.6474 35.5493 13.1768 35.3425 12.68 35.32Z" fill="#D6705C"/>
<path d="M24 40C23.4696 40 22.9609 40.2107 22.5858 40.5858C22.2107 40.9609 22 41.4696 22 42V44C22 44.5304 22.2107 45.0391 22.5858 45.4142C22.9609 45.7893 23.4696 46 24 46C24.5304 46 25.0391 45.7893 25.4142 45.4142C25.7893 45.0391 26 44.5304 26 44V42C26 41.4696 25.7893 40.9609 25.4142 40.5858C25.0391 40.2107 24.5304 40 24 40Z" fill="#D6705C"/>
<path d="M36.72 35.9C36.3475 35.5305 35.8447 35.3222 35.32 35.32C35.0568 35.3185 34.7959 35.3689 34.5522 35.4685C34.3085 35.568 34.0869 35.7146 33.9 35.9C33.5275 36.2747 33.3184 36.7816 33.3184 37.31C33.3184 37.8384 33.5275 38.3453 33.9 38.72L35.32 40.14C35.7026 40.4677 36.1948 40.6389 36.6981 40.6194C37.2015 40.6 37.6789 40.3913 38.0351 40.0351C38.3913 39.6789 38.6 39.2015 38.6194 38.6981C38.6389 38.1948 38.4677 37.7026 38.14 37.32L36.72 35.9Z" fill="#D6705C"/>
</svg>
