<svg width="48" height="48" viewBox="0 0 48 48" fill="none" xmlns="http://www.w3.org/2000/svg">
<path d="M42.0002 18H40.4002C40.1934 17.1026 39.8422 16.2447 39.3602 15.46L40.4802 14.34C40.8079 13.9574 40.9791 13.4652 40.9596 12.9619C40.9402 12.4585 40.7315 11.9811 40.3753 11.6249C40.0192 11.2687 39.5417 11.06 39.0383 11.0406C38.535 11.0211 38.0428 11.1923 37.6602 11.52L36.5402 12.64C35.7555 12.158 34.8976 11.8068 34.0002 11.6V10C34.0002 9.46957 33.7895 8.96086 33.4144 8.58579C33.0394 8.21071 32.5307 8 32.0002 8C31.4698 8 30.9611 8.21071 30.586 8.58579C30.2109 8.96086 30.0002 9.46957 30.0002 10V11.6C29.1081 11.8036 28.2563 12.1552 27.4802 12.64L26.3402 11.52C25.9576 11.1923 25.4655 11.0211 24.9621 11.0406C24.4588 11.06 23.9813 11.2687 23.6251 11.6249C23.2689 11.9811 23.0602 12.4585 23.0408 12.9619C23.0214 13.4652 23.1926 13.9574 23.5202 14.34L24.6402 15.48C24.4602 15.78 24.3202 16.12 24.1602 16.44C23.1319 16.1497 22.0687 16.0017 21.0002 16C18.1179 15.9984 15.3313 17.0342 13.15 18.9181C10.9686 20.802 9.53815 23.4082 9.12022 26.26C7.4926 26.7164 6.08512 27.7464 5.15774 29.1597C4.23036 30.573 3.84573 32.2742 4.07489 33.949C4.30405 35.6237 5.13151 37.1591 6.40445 38.2713C7.67739 39.3835 9.30982 39.9976 11.0002 40H29.3402C31.637 40 33.8397 39.0876 35.4638 37.4635C37.0878 35.8395 38.0002 33.6368 38.0002 31.34C37.9985 30.278 37.7948 29.226 37.4002 28.24L37.6602 28.48C38.0327 28.8495 38.5355 29.0578 39.0602 29.06C39.3234 29.0615 39.5844 29.0111 39.828 28.9115C40.0717 28.812 40.2933 28.6654 40.4802 28.48C40.8527 28.1053 41.0618 27.5984 41.0618 27.07C41.0618 26.5416 40.8527 26.0347 40.4802 25.66L39.3602 24.54C39.8422 23.7553 40.1934 22.8974 40.4002 22H42.0002C42.5307 22 43.0394 21.7893 43.4144 21.4142C43.7895 21.0391 44.0002 20.5304 44.0002 20C44.0002 19.4696 43.7895 18.9609 43.4144 18.5858C43.0394 18.2107 42.5307 18 42.0002 18ZM29.3402 36H11.0002C10.2046 36 9.44151 35.6839 8.8789 35.1213C8.31629 34.5587 8.00022 33.7956 8.00022 33C8.00022 32.2044 8.31629 31.4413 8.8789 30.8787C9.44151 30.3161 10.2046 30 11.0002 30C11.5306 30 12.0394 29.7893 12.4144 29.4142C12.7895 29.0391 13.0002 28.5304 13.0002 28C13.0088 26.1114 13.6853 24.2867 14.9099 22.8489C16.1345 21.4112 17.8283 20.453 19.6915 20.1441C21.5547 19.8351 23.4671 20.1953 25.0903 21.1609C26.7134 22.1265 27.9426 23.6352 28.5602 25.42C28.6745 25.7637 28.88 26.0699 29.1548 26.3059C29.4295 26.5419 29.7632 26.6988 30.1202 26.76C31.2554 26.9722 32.2714 27.5985 32.9711 28.5172C33.6708 29.436 34.0044 30.5818 33.9073 31.7326C33.8101 32.8834 33.2891 33.9571 32.4453 34.7456C31.6015 35.534 30.4949 35.9811 29.3402 36ZM35.3402 23.3C34.9876 23.6317 34.582 23.9021 34.1402 24.1C33.4751 23.6669 32.7555 23.3239 32.0002 23.08C31.0813 21.0735 29.637 19.3528 27.8202 18.1C28.0387 17.587 28.3507 17.119 28.7402 16.72C29.6351 15.8906 30.8101 15.4299 32.0302 15.4299C33.2503 15.4299 34.4254 15.8906 35.3202 16.72V16.72C36.1779 17.6044 36.6576 18.788 36.6576 20.02C36.6576 21.252 36.1779 22.4356 35.3202 23.32L35.3402 23.3Z" fill="#D6705C"/>
</svg>
