<svg width="48" height="48" viewBox="0 0 48 48" fill="none" xmlns="http://www.w3.org/2000/svg">
<path d="M43.4002 18.1399C43.1593 17.9033 42.8624 17.7315 42.5371 17.6405C42.2119 17.5496 41.8689 17.5425 41.5402 17.6199C41.1071 17.72 40.6647 17.7736 40.2202 17.7799C38.6289 17.7799 37.1028 17.1478 35.9776 16.0226C34.8524 14.8974 34.2202 13.3712 34.2202 11.7799C34.2265 11.3355 34.2802 10.893 34.3802 10.4599C34.4576 10.1312 34.4505 9.78825 34.3596 9.46301C34.2687 9.13777 34.0969 8.84086 33.8602 8.59994C33.6274 8.34917 33.3341 8.16233 33.0085 8.05728C32.6828 7.95223 32.3357 7.93249 32.0002 7.99994C30.0097 8.43942 28.2042 9.48506 26.8325 10.9929C25.4607 12.5008 24.59 14.3968 24.3402 16.4199C23.251 16.1297 22.1274 15.9885 21.0002 15.9999C18.1179 15.9983 15.3313 17.0341 13.15 18.9181C10.9686 20.802 9.53815 23.4081 9.12022 26.2599C7.4926 26.7164 6.08512 27.7463 5.15774 29.1596C4.23036 30.5729 3.84573 32.2741 4.07489 33.9489C4.30405 35.6237 5.13151 37.159 6.40445 38.2712C7.67739 39.3835 9.30982 39.9975 11.0002 39.9999H29.3402C31.637 39.9999 33.8397 39.0875 35.4638 37.4635C37.0878 35.8394 38.0002 33.6367 38.0002 31.3399C38.008 29.9462 37.6714 28.5722 37.0202 27.3399C38.7378 26.8603 40.2935 25.9247 41.5224 24.6325C42.7513 23.3402 43.6075 21.7394 44.0002 19.9999C44.0677 19.6645 44.0479 19.3173 43.9429 18.9917C43.8378 18.666 43.651 18.3728 43.4002 18.1399V18.1399ZM29.4002 35.9999H11.0002C10.2046 35.9999 9.44151 35.6839 8.8789 35.1213C8.31629 34.5587 8.00022 33.7956 8.00022 32.9999C8.00022 32.2043 8.31629 31.4412 8.8789 30.8786C9.44151 30.316 10.2046 29.9999 11.0002 29.9999C11.5306 29.9999 12.0394 29.7892 12.4144 29.4142C12.7895 29.0391 13.0002 28.5304 13.0002 27.9999C13.0052 26.5622 13.3975 25.1523 14.1359 23.9186C14.8744 22.685 15.9316 21.6731 17.1965 20.9895C18.4614 20.3059 19.8871 19.9758 21.3237 20.0339C22.7603 20.0921 24.1547 20.5363 25.3602 21.3199V21.3199C26.8202 22.2696 27.9244 23.6762 28.5002 25.3199C28.6145 25.6636 28.82 25.9698 29.0948 26.2058C29.3695 26.4418 29.7032 26.5988 30.0602 26.6599C30.6735 26.7072 31.2714 26.8748 31.8199 27.1532C32.3684 27.4316 32.8567 27.8152 33.257 28.2823C33.6572 28.7494 33.9615 29.2907 34.1525 29.8754C34.3435 30.4601 34.4175 31.0767 34.3702 31.6899C34.3229 32.3032 34.1553 32.9012 33.877 33.4497C33.5986 33.9982 33.2149 34.4865 32.7478 34.8867C32.2808 35.2869 31.7394 35.5912 31.1548 35.7822C30.5701 35.9732 29.9535 36.0472 29.3402 35.9999H29.4002ZM34.2802 23.7799C34.0007 23.8025 33.7198 23.8025 33.4402 23.7799C32.9787 23.5327 32.497 23.3253 32.0002 23.1599C31.1763 21.3662 29.9268 19.8009 28.3602 18.5999C28.3602 18.3599 28.3602 18.0999 28.3602 17.8599C28.3602 16.9933 28.5478 16.1369 28.9104 15.3497C29.2729 14.5626 29.8016 13.8633 30.4602 13.2999C30.7699 15.4337 31.7609 17.4101 33.2855 18.9347C34.81 20.4593 36.7865 21.4503 38.9202 21.7599C38.3341 22.4222 37.6088 22.9467 36.7963 23.296C35.9838 23.6452 35.1041 23.8104 34.2202 23.7799H34.2802Z" fill="#5E8280"/>
</svg>
