<svg width="48" height="48" viewBox="0 0 48 48" fill="none" xmlns="http://www.w3.org/2000/svg">
<path d="M43.9999 18L14 18C13.4696 18 12.9609 18.2107 12.5858 18.5858C12.2107 18.9609 12 19.4696 12 20C12 20.5304 12.2107 21.0391 12.5858 21.4142C12.9609 21.7893 13.4696 22 14 22H43.9999C44.5303 22 45.0391 21.7893 45.4141 21.4142C45.7892 21.0391 45.9999 20.5304 45.9999 20C45.9999 19.4696 45.7892 18.9609 45.4141 18.5858C45.0391 18.2107 44.5303 18 43.9999 18ZM43.9999 18L14 18C13.4696 18 12.9609 18.2107 12.5858 18.5858C12.2107 18.9609 12 19.4696 12 20C12 20.5304 12.2107 21.0391 12.5858 21.4142C12.9609 21.7893 13.4696 22 14 22H43.9999C44.5303 22 45.0391 21.7893 45.4141 21.4142C45.7892 21.0391 45.9999 20.5304 45.9999 20C45.9999 19.4696 45.7892 18.9609 45.4141 18.5858C45.0391 18.2107 44.5303 18 43.9999 18ZM43.9999 18L14 18C13.4696 18 12.9609 18.2107 12.5858 18.5858C12.2107 18.9609 12 19.4696 12 20C12 20.5304 12.2107 21.0391 12.5858 21.4142C12.9609 21.7893 13.4696 22 14 22H43.9999C44.5303 22 45.0391 21.7893 45.4141 21.4142C45.7892 21.0391 45.9999 20.5304 45.9999 20C45.9999 19.4696 45.7892 18.9609 45.4141 18.5858C45.0391 18.2107 44.5303 18 43.9999 18ZM43.9999 18L14 18C13.4696 18 12.9609 18.2107 12.5858 18.5858C12.2107 18.9609 12 19.4696 12 20C12 20.5304 12.2107 21.0391 12.5858 21.4142C12.9609 21.7893 13.4696 22 14 22H43.9999C44.5303 22 45.0391 21.7893 45.4141 21.4142C45.7892 21.0391 45.9999 20.5304 45.9999 20C45.9999 19.4696 45.7892 18.9609 45.4141 18.5858C45.0391 18.2107 44.5303 18 43.9999 18ZM43.9999 18L14 18C13.4696 18 12.9609 18.2107 12.5858 18.5858C12.2107 18.9609 12 19.4696 12 20C12 20.5304 12.2107 21.0391 12.5858 21.4142C12.9609 21.7893 13.4696 22 14 22H43.9999C44.5303 22 45.0391 21.7893 45.4141 21.4142C45.7892 21.0391 45.9999 20.5304 45.9999 20C45.9999 19.4696 45.7892 18.9609 45.4141 18.5858C45.0391 18.2107 44.5303 18 43.9999 18ZM43.9999 18L14 18C13.4696 18 12.9609 18.2107 12.5858 18.5858C12.2107 18.9609 12 19.4696 12 20C12 20.5304 12.2107 21.0391 12.5858 21.4142C12.9609 21.7893 13.4696 22 14 22H43.9999C44.5303 22 45.0391 21.7893 45.4141 21.4142C45.7892 21.0391 45.9999 20.5304 45.9999 20C45.9999 19.4696 45.7892 18.9609 45.4141 18.5858C45.0391 18.2107 44.5303 18 43.9999 18Z" fill="#5E8280"/>
<path d="M16.0005 39H30C30.5304 39 31.0391 39.2107 31.4142 39.5858C31.7893 39.9609 32 40.4696 32 41C32 41.5304 31.7893 42.0391 31.4142 42.4142C31.0391 42.7893 30.5304 43 30 43H16.0005C15.4701 43 14.9613 42.7893 14.5863 42.4142C14.2112 42.0391 14.0005 41.5304 14.0005 41C14.0005 40.4696 14.2112 39.9609 14.5863 39.5858C14.9613 39.2107 15.4701 39 16.0005 39Z" fill="#5E8280"/>
<path d="M35.4142 11.5858C35.7893 11.9609 36 12.4696 36 13C36 13.5304 35.7893 14.0391 35.4142 14.4142C35.0391 14.7893 34.5304 15 34 15H6C5.46957 15 4.96086 14.7893 4.58579 14.4142C4.21071 14.0391 4 13.5304 4 13C4 12.4696 4.21071 11.9609 4.58579 11.5858C4.96086 11.2107 5.46957 11 6 11H34C34.5304 11 35.0391 11.2107 35.4142 11.5858Z" fill="#5E8280"/>
<path d="M4 25H34C34.5304 25 35.0391 25.2107 35.4142 25.5858C35.7893 25.9609 36 26.4696 36 27C36 27.5304 35.7893 28.0391 35.4142 28.4142C35.0391 28.7893 34.5304 29 34 29H4C3.46957 29 2.96086 28.7893 2.58579 28.4142C2.21071 28.0391 2 27.5304 2 27C2 26.4696 2.21071 25.9609 2.58579 25.5858C2.96086 25.2107 3.46957 25 4 25Z" fill="#5E8280"/>
<path d="M12 32H40C40.5304 32 41.0391 32.2107 41.4142 32.5858C41.7893 32.9609 42 33.4696 42 34C42 34.5304 41.7893 35.0391 41.4142 35.4142C41.0391 35.7893 40.5304 36 40 36H12C11.4696 36 10.9609 35.7893 10.5858 35.4142C10.2107 35.0391 10 34.5304 10 34C10 33.4696 10.2107 32.9609 10.5858 32.5858C10.9609 32.2107 11.4696 32 12 32Z" fill="#5E8280"/>
<path d="M16 4H28C28.5304 4 29.0391 4.21071 29.4142 4.58579C29.7893 4.96086 30 5.46957 30 6C30 6.53043 29.7893 7.03914 29.4142 7.41421C29.0391 7.78929 28.5304 8 28 8H16C15.4696 8 14.9609 7.78929 14.5858 7.41421C14.2107 7.03914 14 6.53043 14 6C14 5.46957 14.2107 4.96086 14.5858 4.58579C14.9609 4.21071 15.4696 4 16 4Z" fill="#5E8280"/>
</svg>
