<svg width="48" height="48" viewBox="0 0 48 48" fill="none" xmlns="http://www.w3.org/2000/svg">
<path d="M16.9998 27.9999C16.4693 27.9999 15.9606 28.2107 15.5856 28.5857C15.2105 28.9608 14.9998 29.4695 14.9998 29.9999V41.9999C14.9998 42.5304 15.2105 43.0391 15.5856 43.4142C15.9606 43.7892 16.4693 43.9999 16.9998 43.9999C17.5302 43.9999 18.0389 43.7892 18.414 43.4142C18.7891 43.0391 18.9998 42.5304 18.9998 41.9999V29.9999C18.9998 29.4695 18.7891 28.9608 18.414 28.5857C18.0389 28.2107 17.5302 27.9999 16.9998 27.9999ZM24.9998 25.9999C24.4693 25.9999 23.9606 26.2107 23.5856 26.5857C23.2105 26.9608 22.9998 27.4695 22.9998 27.9999V39.9999C22.9998 40.5304 23.2105 41.0391 23.5856 41.4142C23.9606 41.7892 24.4693 41.9999 24.9998 41.9999C25.5302 41.9999 26.0389 41.7892 26.414 41.4142C26.7891 41.0391 26.9998 40.5304 26.9998 39.9999V27.9999C26.9998 27.4695 26.7891 26.9608 26.414 26.5857C26.0389 26.2107 25.5302 25.9999 24.9998 25.9999ZM43.3998 14.1399C43.1569 13.9 42.8565 13.7262 42.5275 13.6352C42.1984 13.5442 41.8515 13.5389 41.5198 13.6199C41.0936 13.7206 40.6576 13.7742 40.2198 13.7799C38.6285 13.7799 37.1023 13.1478 35.9771 12.0226C34.8519 10.8974 34.2198 9.37124 34.2198 7.77994C34.2261 7.33551 34.2797 6.89301 34.3798 6.45994C34.4572 6.13122 34.4501 5.78825 34.3592 5.46301C34.2682 5.13778 34.0964 4.84086 33.8598 4.59994C33.627 4.34917 33.3337 4.16233 33.008 4.05728C32.6824 3.95223 32.3352 3.93249 31.9998 3.99994C30.0092 4.43942 28.2038 5.48506 26.832 6.99294C25.4602 8.50082 24.5895 10.3968 24.3398 12.4199C23.2505 12.1297 22.127 11.9885 20.9998 11.9999C18.1175 11.9983 15.3309 13.0341 13.1495 14.9181C10.9681 16.802 9.5377 19.4081 9.11977 22.2599C7.72704 22.6478 6.48855 23.4573 5.57444 24.5773C4.66032 25.6974 4.11543 27.073 4.01461 28.5152C3.91378 29.9574 4.26198 31.3954 5.01136 32.6318C5.76074 33.8681 6.87454 34.8421 8.19977 35.4199C8.45465 35.5209 8.72565 35.5751 8.99977 35.5799C9.46216 35.5837 9.91157 35.4271 10.2715 35.1369C10.6315 34.8466 10.8797 34.4406 10.974 33.9879C11.0684 33.5352 11.0029 33.0638 10.7888 32.654C10.5747 32.2441 10.2252 31.9211 9.79977 31.7399C9.26316 31.5114 8.80604 31.1294 8.4858 30.6419C8.16555 30.1544 7.99647 29.5832 7.99977 28.9999C7.99977 28.2043 8.31584 27.4412 8.87845 26.8786C9.44106 26.316 10.2041 25.9999 10.9998 25.9999C11.5302 25.9999 12.0389 25.7892 12.414 25.4142C12.7891 25.0391 12.9998 24.5304 12.9998 23.9999C12.9998 21.8782 13.8426 19.8434 15.3429 18.3431C16.8432 16.8428 18.878 15.9999 20.9998 15.9999C22.5451 16.0015 24.0553 16.4608 25.3398 17.3199C26.7997 18.2696 27.9039 19.6762 28.4798 21.3199C28.5941 21.6636 28.7996 21.9698 29.0743 22.2058C29.3491 22.4418 29.6828 22.5988 30.0398 22.6599C31.0024 22.7606 31.9095 23.1597 32.6341 23.8015C33.3586 24.4434 33.8643 25.2957 34.0803 26.2392C34.2963 27.1827 34.2119 28.1701 33.8388 29.0632C33.4658 29.9563 32.8227 30.7104 31.9998 31.2199C31.7791 31.3644 31.5891 31.5509 31.4406 31.7688C31.292 31.9867 31.1879 32.2317 31.134 32.4898C31.0802 32.748 31.0777 33.0142 31.1267 33.2733C31.1757 33.5324 31.2753 33.7793 31.4198 33.9999C31.5642 34.2206 31.7507 34.4106 31.9686 34.5591C32.1865 34.7077 32.4315 34.8118 32.6896 34.8657C32.9478 34.9196 33.214 34.922 33.4731 34.873C33.7322 34.824 33.9791 34.7244 34.1998 34.5799C35.3817 33.7807 36.3474 32.7013 37.0104 31.4379C37.6735 30.1746 38.0134 28.7667 37.9998 27.3399C38.0076 25.9462 37.6709 24.5722 37.0198 23.3399C38.7373 22.8603 40.2931 21.9247 41.5219 20.6325C42.7508 19.3402 43.607 17.7394 43.9998 15.9999C44.0672 15.6645 44.0475 15.3173 43.9424 14.9917C43.8374 14.666 43.6505 14.3728 43.3998 14.1399ZM34.2198 19.7799C33.9402 19.8016 33.6593 19.8016 33.3798 19.7799C32.9402 19.5083 32.4786 19.2741 31.9998 19.0799C31.1759 17.2862 29.9263 15.7209 28.3598 14.5199C28.3598 14.2799 28.3598 14.0199 28.3598 13.7799C28.3597 12.9133 28.5474 12.0569 28.9099 11.2697C29.2724 10.4826 29.8012 9.78326 30.4598 9.21994C30.7694 11.3537 31.7604 13.3301 33.285 14.8547C34.8096 16.3793 36.7861 17.3703 38.9198 17.6799C38.3413 18.3568 37.6194 18.8964 36.8064 19.2596C35.9935 19.6228 35.1099 19.8006 34.2198 19.7799Z" fill="#5E8280"/>
</svg>
