<svg width="48" height="48" viewBox="0 0 48 48" fill="none" xmlns="http://www.w3.org/2000/svg">
<path d="M41.9998 14H40.3998C40.193 13.1026 39.8417 12.2447 39.3598 11.46L40.4798 10.34C40.8074 9.9574 40.9786 9.46525 40.9592 8.96189C40.9397 8.45854 40.7311 7.98106 40.3749 7.62487C40.0187 7.26868 39.5412 7.06002 39.0379 7.04058C38.5345 7.02114 38.0424 7.19235 37.6598 7.52L36.5398 8.64C35.755 8.15802 34.8972 7.80678 33.9998 7.6V6C33.9998 5.46957 33.7891 4.96086 33.414 4.58579C33.0389 4.21071 32.5302 4 31.9998 4C31.4693 4 30.9606 4.21071 30.5856 4.58579C30.2105 4.96086 29.9998 5.46957 29.9998 6V7.6C29.1076 7.80363 28.2559 8.15515 27.4798 8.64L26.3398 7.52C25.9572 7.19235 25.465 7.02114 24.9617 7.04058C24.4583 7.06002 23.9808 7.26868 23.6246 7.62487C23.2685 7.98106 23.0598 8.45854 23.0403 8.96189C23.0209 9.46525 23.1921 9.9574 23.5198 10.34L24.6398 11.48C24.4598 11.78 24.3198 12.12 24.1598 12.44C23.1315 12.1497 22.0683 12.0017 20.9998 12C18.1175 11.9984 15.3309 13.0342 13.1495 14.9181C10.9681 16.802 9.5377 19.4082 9.11977 22.26C7.72704 22.6478 6.48855 23.4574 5.57444 24.5774C4.66032 25.6975 4.11543 27.0731 4.01461 28.5153C3.91378 29.9575 4.26198 31.3955 5.01136 32.6318C5.76074 33.8682 6.87454 34.8422 8.19977 35.42C8.45465 35.521 8.72565 35.5752 8.99977 35.58C9.46216 35.5838 9.91157 35.4272 10.2715 35.1369C10.6315 34.8467 10.8797 34.4407 10.974 33.988C11.0684 33.5353 11.0029 33.0639 10.7888 32.6541C10.5747 32.2442 10.2252 31.9212 9.79977 31.74C9.26316 31.5114 8.80604 31.1294 8.4858 30.642C8.16555 30.1545 7.99647 29.5832 7.99977 29C7.99977 28.2044 8.31584 27.4413 8.87845 26.8787C9.44106 26.3161 10.2041 26 10.9998 26C11.5302 26 12.0389 25.7893 12.414 25.4142C12.7891 25.0391 12.9998 24.5304 12.9998 24C13.0083 22.1114 13.6848 20.2867 14.9094 18.8489C16.1341 17.4112 17.8279 16.453 19.6911 16.1441C21.5543 15.8351 23.4667 16.1953 25.0898 17.1609C26.7129 18.1265 27.9421 19.6352 28.5598 21.42C28.6741 21.7637 28.8796 22.0699 29.1543 22.3059C29.4291 22.5419 29.7628 22.6988 30.1198 22.76C31.0487 22.8976 31.914 23.3138 32.6014 23.9536C33.2888 24.5934 33.7658 25.4267 33.9695 26.3434C34.1733 27.2601 34.094 28.217 33.7423 29.0877C33.3906 29.9584 32.783 30.702 31.9998 31.22C31.7791 31.3645 31.5891 31.5509 31.4406 31.7688C31.292 31.9867 31.1879 32.2317 31.134 32.4899C31.0802 32.748 31.0777 33.0143 31.1267 33.2734C31.1757 33.5325 31.2753 33.7794 31.4198 34C31.5642 34.2206 31.7507 34.4106 31.9686 34.5592C32.1865 34.7077 32.4315 34.8119 32.6896 34.8658C32.9478 34.9196 33.214 34.9221 33.4731 34.8731C33.7322 34.824 33.9791 34.7245 34.1998 34.58C35.3792 33.7783 36.3429 32.6982 37.0057 31.4355C37.6685 30.1727 38.0099 28.7661 37.9998 27.34C37.998 26.278 37.7944 25.226 37.3998 24.24L37.6598 24.48C38.0323 24.8495 38.5351 25.0578 39.0598 25.06C39.323 25.0615 39.5839 25.0111 39.8276 24.9115C40.0713 24.812 40.2929 24.6654 40.4798 24.48C40.8523 24.1053 41.0614 23.5984 41.0614 23.07C41.0614 22.5416 40.8523 22.0347 40.4798 21.66L39.3598 20.54C39.8417 19.7553 40.193 18.8974 40.3998 18H41.9998C42.5302 18 43.0389 17.7893 43.414 17.4142C43.7891 17.0391 43.9998 16.5304 43.9998 16C43.9998 15.4696 43.7891 14.9609 43.414 14.5858C43.0389 14.2107 42.5302 14 41.9998 14ZM35.3198 19.3C34.9723 19.6484 34.5661 19.9328 34.1198 20.14C33.4672 19.6875 32.7533 19.3306 31.9998 19.08C31.0809 17.0735 29.6366 15.3528 27.8198 14.1C28.0427 13.5834 28.3541 13.1096 28.7398 12.7V12.7C29.6379 11.8693 30.8163 11.4079 32.0398 11.4079C33.2632 11.4079 34.4416 11.8693 35.3398 12.7V12.7C36.1975 13.5844 36.6772 14.768 36.6772 16C36.6772 17.232 36.1975 18.4156 35.3398 19.3H35.3198ZM16.9998 28C16.4693 28 15.9606 28.2107 15.5856 28.5858C15.2105 28.9609 14.9998 29.4696 14.9998 30V42C14.9998 42.5304 15.2105 43.0391 15.5856 43.4142C15.9606 43.7893 16.4693 44 16.9998 44C17.5302 44 18.0389 43.7893 18.414 43.4142C18.7891 43.0391 18.9998 42.5304 18.9998 42V30C18.9998 29.4696 18.7891 28.9609 18.414 28.5858C18.0389 28.2107 17.5302 28 16.9998 28ZM24.9998 26C24.4693 26 23.9606 26.2107 23.5856 26.5858C23.2105 26.9609 22.9998 27.4696 22.9998 28V40C22.9998 40.5304 23.2105 41.0391 23.5856 41.4142C23.9606 41.7893 24.4693 42 24.9998 42C25.5302 42 26.0389 41.7893 26.414 41.4142C26.7891 41.0391 26.9998 40.5304 26.9998 40V28C26.9998 27.4696 26.7891 26.9609 26.414 26.5858C26.0389 26.2107 25.5302 26 24.9998 26Z" fill="#D6705C"/>
</svg>
