<svg width="48" height="48" viewBox="0 0 48 48" fill="none" xmlns="http://www.w3.org/2000/svg">
<path d="M36.8398 18.4199C35.6164 15.6116 33.5057 13.2819 30.8313 11.7883C28.1568 10.2946 25.0663 9.71929 22.0335 10.1506C19.0008 10.5819 16.1932 11.996 14.0412 14.1761C11.8893 16.3561 10.5117 19.1818 10.1198 22.2199C8.21295 22.6766 6.54022 23.8176 5.41926 25.4263C4.29829 27.035 3.80715 28.9994 4.03911 30.9464C4.27107 32.8934 5.20997 34.6873 6.67751 35.9877C8.14506 37.288 10.039 38.0041 11.9998 37.9999H33.9998C36.3985 37.9933 38.7149 37.1247 40.5266 35.5525C42.3382 33.9803 43.5243 31.8093 43.8687 29.4354C44.213 27.0615 43.6925 24.643 42.4022 22.6209C41.1119 20.5987 39.1378 19.1078 36.8398 18.4199V18.4199ZM33.9998 33.9999H11.9998C10.9389 33.9999 9.9215 33.5785 9.17135 32.8284C8.42121 32.0782 7.99978 31.0608 7.99978 29.9999C7.99978 28.9391 8.42121 27.9217 9.17135 27.1715C9.9215 26.4214 10.9389 25.9999 11.9998 25.9999C12.5302 25.9999 13.0389 25.7892 13.414 25.4142C13.7891 25.0391 13.9998 24.5304 13.9998 23.9999C14.0049 21.6345 14.8484 19.3474 16.3803 17.5451C17.9123 15.7428 20.0336 14.5418 22.3673 14.1557C24.701 13.7695 27.096 14.2232 29.1269 15.436C31.1578 16.6488 32.693 18.5422 33.4598 20.7799C33.5771 21.1199 33.7839 21.4219 34.0585 21.6542C34.333 21.8865 34.6651 22.0405 35.0198 22.0999C36.4858 22.3704 37.7986 23.177 38.7024 24.3625C39.6063 25.548 40.0364 27.0275 39.9091 28.5127C39.7818 29.998 39.1061 31.3827 38.0137 32.3971C36.9213 33.4115 35.4904 33.9829 33.9998 33.9999V33.9999Z" fill="#5E8280"/>
</svg>
