<svg width="48" height="48" viewBox="0 0 48 48" fill="none" xmlns="http://www.w3.org/2000/svg">
<path d="M16 26C15.4696 26 14.9609 26.2107 14.5858 26.5858C14.2108 26.9609 14 27.4696 14 28V38C14 38.5305 14.2108 39.0392 14.5858 39.4142C14.9609 39.7893 15.4696 40 16 40C16.5305 40 17.0392 39.7893 17.4143 39.4142C17.7893 39.0392 18 38.5305 18 38V28C18 27.4696 17.7893 26.9609 17.4143 26.5858C17.0392 26.2107 16.5305 26 16 26V26ZM24 22C23.4696 22 22.9609 22.2107 22.5858 22.5858C22.2108 22.9609 22 23.4696 22 24V42C22 42.5305 22.2108 43.0392 22.5858 43.4142C22.9609 43.7893 23.4696 44 24 44C24.5305 44 25.0392 43.7893 25.4143 43.4142C25.7893 43.0392 26 42.5305 26 42V24C26 23.4696 25.7893 22.9609 25.4143 22.5858C25.0392 22.2107 24.5305 22 24 22ZM36.84 12.44C35.618 9.63204 33.509 7.30219 30.8362 5.80749C28.1634 4.31279 25.0742 3.7357 22.042 4.16465C19.0098 4.59361 16.2019 6.00494 14.0485 8.18238C11.8952 10.3598 10.5152 13.1833 10.12 16.22C8.37487 16.642 6.82237 17.6387 5.7123 19.0499C4.60223 20.461 3.99913 22.2046 4.00004 24C3.99647 25.1329 4.23353 26.2536 4.69554 27.2879C5.15756 28.3223 5.83398 29.2467 6.68004 30C6.87475 30.1871 7.10532 30.3327 7.35783 30.4282C7.61035 30.5238 7.8796 30.5672 8.14934 30.5559C8.41909 30.5445 8.68375 30.4787 8.92738 30.3624C9.17101 30.246 9.38855 30.0816 9.56691 29.8789C9.74527 29.6762 9.88075 29.4395 9.96518 29.1831C10.0496 28.9266 10.0812 28.6557 10.0582 28.3867C10.0351 28.1177 9.95781 27.8562 9.83096 27.6179C9.7041 27.3796 9.5303 27.1694 9.32004 27C8.90065 26.6216 8.56618 26.1585 8.33866 25.6414C8.11115 25.1244 7.99574 24.5649 8.00004 24C8.00004 22.9392 8.42147 21.9218 9.17161 21.1716C9.92176 20.4215 10.9392 20 12 20C12.5305 20 13.0392 19.7893 13.4143 19.4142C13.7893 19.0392 14 18.5305 14 18C14.0051 15.6346 14.8486 13.3475 16.3806 11.5452C17.9125 9.74286 20.0338 8.54194 22.3675 8.15578C24.7013 7.76963 27.0963 8.22325 29.1272 9.43605C31.1581 10.6489 32.6933 12.5423 33.46 14.78C33.5744 15.1237 33.7799 15.4299 34.0546 15.6659C34.3294 15.9019 34.663 16.0589 35.02 16.12C36.4084 16.3595 37.6682 17.0799 38.5787 18.155C39.4892 19.23 39.9924 20.5912 40 22C40.0306 23.4726 39.5017 24.902 38.52 26C38.2007 26.3976 38.0454 26.9022 38.0857 27.4106C38.1261 27.9189 38.3591 28.3927 38.7371 28.7349C39.1151 29.0772 39.6096 29.2621 40.1195 29.2519C40.6293 29.2417 41.116 29.0371 41.48 28.68C42.5817 27.4212 43.3499 25.906 43.7143 24.2734C44.0788 22.6407 44.0278 20.9428 43.5662 19.3349C43.1045 17.727 42.2469 16.2607 41.0718 15.0701C39.8967 13.8795 38.4417 13.0027 36.84 12.52V12.44ZM32 26C31.4696 26 30.9609 26.2107 30.5858 26.5858C30.2108 26.9609 30 27.4696 30 28V38C30 38.5305 30.2108 39.0392 30.5858 39.4142C30.9609 39.7893 31.4696 40 32 40C32.5305 40 33.0392 39.7893 33.4143 39.4142C33.7893 39.0392 34 38.5305 34 38V28C34 27.4696 33.7893 26.9609 33.4143 26.5858C33.0392 26.2107 32.5305 26 32 26Z" fill="#5E8280"/>
</svg>
