<svg width="48" height="48" viewBox="0 0 48 48" fill="none" xmlns="http://www.w3.org/2000/svg">
<path d="M42.3202 32.26L38.3202 29.96L40.1002 29.48C40.3616 29.4191 40.6081 29.3062 40.825 29.148C41.0418 28.9899 41.2246 28.7896 41.3625 28.5593C41.5004 28.329 41.5904 28.0733 41.6274 27.8075C41.6643 27.5416 41.6474 27.271 41.5776 27.0119C41.5077 26.7527 41.3864 26.5102 41.2209 26.2989C41.0554 26.0876 40.8491 25.9118 40.6142 25.7819C40.3793 25.652 40.1206 25.5707 39.8537 25.5429C39.5867 25.5151 39.3169 25.5413 39.0602 25.62L33.4202 27.14L28.0002 24L33.4202 20.86L39.0602 22.38H39.5802C40.1107 22.449 40.6468 22.3044 41.0706 21.9781C41.4944 21.6517 41.7713 21.1704 41.8402 20.64C41.9092 20.1096 41.7646 19.5735 41.4383 19.1496C41.112 18.7258 40.6307 18.449 40.1002 18.38L38.3202 18L42.3202 15.7C42.5487 15.5687 42.7491 15.3936 42.91 15.1849C43.0708 14.9761 43.189 14.7377 43.2577 14.4833C43.3264 14.2288 43.3443 13.9634 43.3105 13.702C43.2766 13.4406 43.1916 13.1885 43.0602 12.96C42.9289 12.7315 42.7539 12.5311 42.5451 12.3703C42.3363 12.2094 42.0979 12.0912 41.8435 12.0225C41.5891 11.9538 41.3236 11.9359 41.0622 11.9698C40.8009 12.0036 40.5487 12.0887 40.3202 12.22L36.0002 14.74L36.6002 12.52C36.6789 12.2634 36.7051 11.9935 36.6773 11.7266C36.6495 11.4596 36.5682 11.201 36.4383 10.9661C36.3085 10.7312 36.1326 10.5248 35.9213 10.3593C35.71 10.1938 35.4675 10.0725 35.2084 10.0027C34.9492 9.93284 34.6786 9.9159 34.4128 9.95284C34.1469 9.98979 33.8912 10.0799 33.6609 10.2177C33.4306 10.3556 33.2304 10.5384 33.0722 10.7552C32.914 10.9721 32.8011 11.2186 32.7402 11.48L31.1002 17.48L26.0002 20.54V14.28L30.1402 10.14C30.5127 9.76528 30.7218 9.25837 30.7218 8.73C30.7218 8.20163 30.5127 7.69473 30.1402 7.32C29.9543 7.13254 29.7331 6.98375 29.4894 6.88222C29.2457 6.78068 28.9843 6.7284 28.7202 6.7284C28.4562 6.7284 28.1948 6.78068 27.9511 6.88222C27.7074 6.98375 27.4862 7.13254 27.3002 7.32L26.0002 8.62V4C26.0002 3.46957 25.7895 2.96086 25.4144 2.58579C25.0394 2.21071 24.5307 2 24.0002 2C23.4698 2 22.9611 2.21071 22.586 2.58579C22.2109 2.96086 22.0002 3.46957 22.0002 4V8.94L20.3802 7.32C20.1943 7.13254 19.9731 6.98375 19.7294 6.88222C19.4857 6.78068 19.2243 6.7284 18.9602 6.7284C18.6962 6.7284 18.4348 6.78068 18.1911 6.88222C17.9474 6.98375 17.7262 7.13254 17.5402 7.32C17.1677 7.69473 16.9586 8.20163 16.9586 8.73C16.9586 9.25837 17.1677 9.76528 17.5402 10.14L22.0002 14.6V20.6L16.8602 17.56L15.2202 11.56C15.1593 11.2986 15.0464 11.0521 14.8883 10.8352C14.7301 10.6184 14.5299 10.4356 14.2996 10.2977C14.0693 10.1599 13.8136 10.0698 13.5477 10.0328C13.2818 9.9959 13.0113 10.0128 12.7521 10.0827C12.4929 10.1525 12.2504 10.2738 12.0391 10.4393C11.8278 10.6048 11.652 10.8112 11.5221 11.0461C11.3922 11.281 11.311 11.5396 11.2832 11.8066C11.2553 12.0735 11.2816 12.3434 11.3602 12.6L12.0002 14.74L7.68023 12.26C7.45173 12.1287 7.1996 12.0436 6.93824 12.0098C6.67688 11.9759 6.4114 11.9938 6.15697 12.0625C5.90254 12.1312 5.66413 12.2494 5.45536 12.4103C5.24659 12.5711 5.07155 12.7715 4.94023 13C4.80891 13.2285 4.72388 13.4806 4.68999 13.742C4.65611 14.0034 4.67404 14.2688 4.74276 14.5233C4.88153 15.0371 5.21875 15.4748 5.68023 15.74L9.68023 18L8.00023 18.52C7.46979 18.589 6.98848 18.8658 6.66217 19.2896C6.33585 19.7135 6.19127 20.2496 6.26023 20.78C6.32918 21.3104 6.60603 21.7917 7.02986 22.1181C7.45369 22.4444 7.9898 22.589 8.52023 22.52H9.04023L14.6802 21L20.0002 24L14.5802 27.14L8.94023 25.62C8.67559 25.5217 8.39315 25.4806 8.11148 25.4993C7.82981 25.518 7.55529 25.5961 7.30597 25.7285C7.05666 25.861 6.8382 26.0446 6.66495 26.2675C6.49171 26.4904 6.36761 26.7474 6.30082 27.0217C6.23403 27.296 6.22605 27.5813 6.27742 27.8589C6.32879 28.1364 6.43834 28.4 6.59887 28.6322C6.75939 28.8644 6.96725 29.06 7.20878 29.2061C7.45031 29.3523 7.72004 29.4456 8.00023 29.48L9.78023 29.96L5.78023 32.26C5.31875 32.5252 4.98153 32.9629 4.84276 33.4767C4.70398 33.9906 4.77501 34.5385 5.04023 35C5.30544 35.4615 5.74312 35.7987 6.25697 35.9375C6.77082 36.0763 7.31875 36.0052 7.78023 35.74L12.0002 33.26L11.4002 35.48C11.3209 35.736 11.2939 36.0053 11.3208 36.272C11.3476 36.5387 11.4278 36.7972 11.5565 37.0323C11.6853 37.2673 11.8599 37.4741 12.0701 37.6404C12.2803 37.8066 12.5218 37.9289 12.7802 38C12.953 38.0197 13.1275 38.0197 13.3002 38C13.7518 38.0155 14.1952 37.8776 14.5584 37.6089C14.9215 37.3401 15.183 36.9563 15.3002 36.52L16.9402 30.52L22.0002 27.46V33.72L17.8602 37.86C17.4877 38.2347 17.2786 38.7416 17.2786 39.27C17.2786 39.7984 17.4877 40.3053 17.8602 40.68C18.0455 40.869 18.2663 41.0193 18.5101 41.1223C18.7538 41.2253 19.0156 41.2789 19.2802 41.28C19.5448 41.2789 19.8066 41.2253 20.0504 41.1223C20.2941 41.0193 20.515 40.869 20.7002 40.68L22.0002 39.38V44C22.0002 44.5304 22.2109 45.0391 22.586 45.4142C22.9611 45.7893 23.4698 46 24.0002 46C24.5307 46 25.0394 45.7893 25.4144 45.4142C25.7895 45.0391 26.0002 44.5304 26.0002 44V39.06L27.6202 40.68C27.8062 40.8675 28.0274 41.0162 28.2711 41.1178C28.5148 41.2193 28.7762 41.2716 29.0402 41.2716C29.3043 41.2716 29.5657 41.2193 29.8094 41.1178C30.0531 41.0162 30.2743 40.8675 30.4602 40.68C30.8327 40.3053 31.0418 39.7984 31.0418 39.27C31.0418 38.7416 30.8327 38.2347 30.4602 37.86L26.0002 33.4V27.4L31.1402 30.38L32.7802 36.38C32.8974 36.8163 33.1589 37.2001 33.5221 37.4689C33.8852 37.7376 34.3287 37.8755 34.7802 37.86C34.953 37.8797 35.1275 37.8797 35.3002 37.86C35.5556 37.7927 35.7951 37.6755 36.0049 37.5152C36.2148 37.3549 36.3908 37.1546 36.5228 36.9259C36.6548 36.6972 36.7402 36.4446 36.7741 36.1827C36.808 35.9208 36.7897 35.6548 36.7202 35.4L36.0002 33.26L40.2802 35.74C40.5087 35.8713 40.7609 35.9564 41.0222 35.9902C41.2836 36.0241 41.5491 36.0062 41.8035 35.9375C42.0579 35.8688 42.2963 35.7506 42.5051 35.5897C42.7139 35.4289 42.8889 35.2285 43.0202 35C43.1516 34.7715 43.2366 34.5194 43.2705 34.258C43.3043 33.9966 43.2864 33.7312 43.2177 33.4767C43.149 33.2223 43.0308 32.9839 42.87 32.7751C42.7091 32.5664 42.5087 32.3913 42.2802 32.26H42.3202Z" fill="#5E8280"/>
</svg>
