<svg width="48" height="48" viewBox="0 0 48 48" fill="none" xmlns="http://www.w3.org/2000/svg">
<path d="M26.9998 29.9999H22.4598L25.3598 24.9999C25.4911 24.7714 25.5761 24.5193 25.61 24.258C25.6439 23.9966 25.626 23.7311 25.5573 23.4767C25.4885 23.2223 25.3704 22.9838 25.2095 22.7751C25.0487 22.5663 24.8483 22.3913 24.6198 22.2599C24.3913 22.1286 24.1392 22.0436 23.8778 22.0097C23.6164 21.9758 23.351 21.9938 23.0965 22.0625C22.8421 22.1312 22.6037 22.2493 22.3949 22.4102C22.1861 22.571 22.0111 22.7714 21.8798 22.9999L17.2598 30.9999C17.0842 31.304 16.9918 31.6489 16.9918 31.9999C16.9918 32.351 17.0842 32.6959 17.2598 32.9999C17.436 33.3052 17.6897 33.5584 17.9953 33.734C18.3008 33.9096 18.6474 34.0013 18.9998 33.9999H23.5398L20.6398 38.9999C20.3746 39.4614 20.3035 40.0094 20.4423 40.5232C20.5811 41.0371 20.9183 41.4747 21.3798 41.7399C21.8413 42.0052 22.3892 42.0762 22.903 41.9374C23.4169 41.7986 23.8546 41.4614 24.1198 40.9999L28.7398 32.9999C28.9153 32.6959 29.0077 32.351 29.0077 31.9999C29.0077 31.6489 28.9153 31.304 28.7398 30.9999C28.5636 30.6947 28.3098 30.4415 28.0043 30.2659C27.6987 30.0903 27.3522 29.9985 26.9998 29.9999ZM36.8398 14.4199C35.6164 11.6116 33.5057 9.28194 30.8313 7.78826C28.1568 6.29458 25.0663 5.71929 22.0335 6.15059C19.0008 6.5819 16.1932 7.99599 14.0412 10.1761C11.8893 12.3561 10.5117 15.1818 10.1198 18.2199C8.21295 18.6766 6.54022 19.8176 5.41926 21.4263C4.29829 23.035 3.80715 24.9994 4.03911 26.9464C4.27107 28.8934 5.20997 30.6873 6.67751 31.9877C8.14506 33.288 10.039 34.0041 11.9998 33.9999C12.5302 33.9999 13.0389 33.7892 13.414 33.4142C13.7891 33.0391 13.9998 32.5304 13.9998 31.9999C13.9998 31.4695 13.7891 30.9608 13.414 30.5857C13.0389 30.2107 12.5302 29.9999 11.9998 29.9999C10.9389 29.9999 9.9215 29.5785 9.17135 28.8284C8.42121 28.0782 7.99978 27.0608 7.99978 25.9999C7.99978 24.9391 8.42121 23.9217 9.17135 23.1715C9.9215 22.4214 10.9389 21.9999 11.9998 21.9999C12.5302 21.9999 13.0389 21.7892 13.414 21.4142C13.7891 21.0391 13.9998 20.5304 13.9998 19.9999C14.0049 17.6345 14.8484 15.3475 16.3803 13.5451C17.9123 11.7428 20.0336 10.5418 22.3673 10.1557C24.701 9.76954 27.096 10.2232 29.1269 11.436C31.1578 12.6488 32.693 14.5422 33.4598 16.7799C33.5771 17.1199 33.7839 17.4219 34.0585 17.6542C34.333 17.8865 34.6651 18.0405 35.0198 18.0999C36.4858 18.3704 37.7986 19.177 38.7024 20.3625C39.6063 21.548 40.0364 23.0275 39.9091 24.5127C39.7818 25.998 39.1061 27.3827 38.0137 28.3971C36.9213 29.4115 35.4904 29.9829 33.9998 29.9999C33.4693 29.9999 32.9606 30.2107 32.5856 30.5857C32.2105 30.9608 31.9998 31.4695 31.9998 31.9999C31.9998 32.5304 32.2105 33.0391 32.5856 33.4142C32.9606 33.7892 33.4693 33.9999 33.9998 33.9999C36.3985 33.9933 38.7149 33.1247 40.5266 31.5525C42.3382 29.9803 43.5243 27.8093 43.8687 25.4354C44.213 23.0615 43.6925 20.643 42.4022 18.6209C41.1119 16.5987 39.1378 15.1078 36.8398 14.4199Z" fill="#D6705C"/>
</svg>
